<svg width="193" height="145" viewBox="0 0 193 145" fill="none" xmlns="http://www.w3.org/2000/svg">
<g clip-path="url(#clip0_1791_20409)">
<path d="M110.655 47.4323L114.855 31.7607C118.353 18.7728 131.702 11.0656 144.698 14.5295C157.686 18.0281 165.393 31.378 161.928 44.3751L157.729 60.0455C157.727 60.05 157.726 60.0521 157.726 60.0529L157.725 60.0552C157.723 60.0568 157.72 60.0599 157.715 60.0627C157.711 60.0655 157.706 60.0666 157.704 60.0669L157.702 60.067C157.701 60.067 157.701 60.0669 157.701 60.0669C157.699 60.0668 157.697 60.0664 157.694 60.0655L149.858 57.9658C149.853 57.9646 149.851 57.9636 149.85 57.9632L149.848 57.9618C149.846 57.9605 149.843 57.9576 149.841 57.9526C149.838 57.9477 149.837 57.9436 149.836 57.9415L149.836 57.9388C149.836 57.9386 149.836 57.9382 149.836 57.9376C149.837 57.9363 149.837 57.9342 149.838 57.9312L154.037 42.2584C156.353 33.6174 151.225 24.7358 142.584 22.4205C133.943 20.1052 125.061 25.2329 122.746 33.8739C122.746 33.874 122.746 33.874 122.746 33.874L118.547 49.5467C118.545 49.5511 118.544 49.5533 118.544 49.5541L118.543 49.5564C118.542 49.5574 118.54 49.5588 118.538 49.5604C118.537 49.5615 118.535 49.5627 118.533 49.5639C118.528 49.5667 118.524 49.5678 118.522 49.5681L118.52 49.5682C118.519 49.5681 118.516 49.5679 118.512 49.5667L110.675 47.467C110.671 47.4658 110.669 47.4647 110.668 47.4644L110.666 47.4629C110.664 47.4616 110.661 47.4587 110.658 47.4538C110.655 47.4488 110.654 47.4448 110.654 47.4427L110.654 47.44C110.654 47.4391 110.654 47.4367 110.655 47.4323Z" stroke="#38D9C0" stroke-width="4"/>
<path d="M110.69 47.414L157.709 60.0126C162.052 61.1762 164.629 65.6403 163.465 69.9832L154.016 105.247C152.853 109.59 148.389 112.168 144.046 111.004L97.027 98.4053C92.684 97.2416 90.1067 92.7776 91.2704 88.4346L100.719 53.1707C101.883 48.8276 106.347 46.2503 110.69 47.414Z" stroke="#38D9C0" stroke-width="4"/>
<path d="M129.585 94.5218L128.14 94.1191C128.062 94.4 127.77 94.5642 127.489 94.4859L127.482 94.4838L127.475 94.4818L119.638 92.3821C119.614 92.3756 119.591 92.3676 119.569 92.3581L119.568 92.358C119.3 92.2438 119.175 91.9341 119.289 91.6659C119.289 91.6656 119.289 91.6654 119.289 91.6652L123.635 81.4933L124.062 80.4948L123.247 79.7776C120.77 77.5991 119.749 74.2005 120.617 71.0177L120.617 71.0177C121.871 66.4133 126.621 63.6977 131.225 64.9523C135.829 66.2067 138.545 70.9556 137.291 75.5597C136.427 78.7102 133.867 81.1083 130.666 81.7645L129.607 81.9816L129.478 83.0547L128.156 94.0391L128.155 94.0425C128.153 94.0656 128.148 94.0916 128.14 94.1203L129.585 94.5218ZM129.585 94.5218C129.284 95.6009 128.165 96.2317 127.086 95.9307L138.738 75.9554C137.725 79.6511 134.721 82.4643 130.967 83.2339L129.645 94.2184C129.633 94.3209 129.613 94.4223 129.585 94.5218Z" stroke="#FF6666" stroke-width="3"/>
</g>
<mask id="path-4-inside-1_1791_20409" fill="white">
<path fill-rule="evenodd" clip-rule="evenodd" d="M63.2621 103.221C63.7846 102.712 64.0524 102.037 64.0609 101.36C64.0693 100.682 63.8185 100.002 63.3088 99.4791L58.5132 94.5595C57.0313 93.0428 55.0462 92.1895 52.9264 92.1631C50.8065 92.1366 48.8007 92.94 47.2841 94.4193L40.4019 101.133C40.386 101.147 40.3702 101.162 40.3546 101.178C40.3388 101.193 40.3233 101.208 40.308 101.224L26.2684 114.919C25.2207 115.941 25.1998 117.614 26.2217 118.661C27.2435 119.709 28.9161 119.73 29.9638 118.708L42.1562 106.815L48.8015 113.628C49.8234 114.676 51.496 114.697 52.5437 113.675C53.0662 113.165 53.334 112.491 53.3425 111.814C53.3509 111.136 53.1 110.455 52.5904 109.933L45.9448 103.119L50.9795 98.2081C51.4859 97.7142 52.1537 97.4472 52.8603 97.4561C53.5669 97.4649 54.2277 97.7484 54.7217 98.2548L59.52 103.174C60.5418 104.222 62.2144 104.243 63.2621 103.221Z"/>
</mask>
<path d="M63.2621 103.221L59.771 99.6418L59.771 99.6418L63.2621 103.221ZM63.3088 99.4791L59.7285 102.969L59.7294 102.97L63.3088 99.4791ZM58.5132 94.5595L62.0935 91.0693L62.0895 91.0652L58.5132 94.5595ZM47.2841 94.4193L43.793 90.8399L43.7927 90.8401L47.2841 94.4193ZM40.4019 101.133L43.8055 104.795L43.8499 104.754L43.8933 104.712L40.4019 101.133ZM40.3546 101.178L43.8458 104.757L43.8458 104.757L40.3546 101.178ZM40.308 101.224L43.7994 104.803L43.8427 104.761L43.8849 104.718L40.308 101.224ZM26.2684 114.919L29.7595 118.499L29.7598 118.498L26.2684 114.919ZM26.2217 118.661L22.6423 122.152L26.2217 118.661ZM29.9638 118.708L33.4549 122.287L33.4552 122.287L29.9638 118.708ZM42.1562 106.815L45.7356 103.324L42.2443 99.7442L38.6649 103.236L42.1562 106.815ZM48.8015 113.628L45.2221 117.119L45.2221 117.119L48.8015 113.628ZM52.5437 113.675L49.0526 110.096L49.0526 110.096L52.5437 113.675ZM52.5904 109.933L49.011 113.424L49.011 113.424L52.5904 109.933ZM45.9448 103.119L42.4535 99.5401L38.8745 103.031L42.3654 106.61L45.9448 103.119ZM50.9795 98.2081L47.4884 94.6287L47.4882 94.6289L50.9795 98.2081ZM54.7217 98.2548L58.3011 94.7637L54.7217 98.2548ZM59.52 103.174L63.0994 99.6834L63.0994 99.6834L59.52 103.174ZM59.0613 101.297C59.0687 100.7 59.3083 100.093 59.771 99.6418L66.7532 106.801C68.261 105.33 69.0361 103.375 69.0605 101.422L59.0613 101.297ZM59.7294 102.97C59.2781 102.507 59.0538 101.895 59.0613 101.297L69.0605 101.422C69.0849 99.4698 68.3588 97.4957 66.8882 95.9879L59.7294 102.97ZM54.9328 98.0496L59.7285 102.969L66.8892 95.9889L62.0935 91.0693L54.9328 98.0496ZM52.8639 97.1627C53.6546 97.1726 54.3774 97.4811 54.9369 98.0537L62.0895 91.0652C59.6853 88.6045 56.4378 87.2065 52.9888 87.1635L52.8639 97.1627ZM50.7752 97.9987C51.3443 97.4436 52.0725 97.1528 52.8639 97.1627L52.9888 87.1635C49.5405 87.1204 46.2572 88.4364 43.793 90.8399L50.7752 97.9987ZM43.8933 104.712L50.7754 97.9984L43.7927 90.8401L36.9106 97.5534L43.8933 104.712ZM43.8458 104.757C43.8326 104.77 43.8192 104.783 43.8055 104.795L36.9983 97.4698C36.9528 97.5121 36.9078 97.5549 36.8633 97.5983L43.8458 104.757ZM43.8849 104.718C43.872 104.731 43.859 104.744 43.8458 104.757L36.8633 97.5983C36.8187 97.6419 36.7746 97.6859 36.7311 97.7304L43.8849 104.718ZM29.7598 118.498L43.7994 104.803L36.8167 97.6449L22.7771 111.34L29.7598 118.498ZM29.8011 115.17C30.7073 116.099 30.6887 117.592 29.7595 118.499L22.7773 111.34C19.7527 114.29 19.6923 119.128 22.6423 122.152L29.8011 115.17ZM26.4727 115.129C27.4019 114.222 28.8949 114.241 29.8011 115.17L22.6423 122.152C25.5922 125.177 30.4304 125.237 33.4549 122.287L26.4727 115.129ZM38.6649 103.236L26.4725 115.129L33.4552 122.287L45.6475 110.394L38.6649 103.236ZM52.3809 110.137L45.7356 103.324L38.5768 110.306L45.2221 117.119L52.3809 110.137ZM49.0526 110.096C49.9817 109.189 51.4747 109.208 52.3809 110.137L45.2221 117.119C48.1721 120.144 53.0103 120.204 56.0348 117.254L49.0526 110.096ZM48.3429 111.751C48.3503 111.154 48.5898 110.547 49.0526 110.096L56.0348 117.254C57.5425 115.784 58.3177 113.829 58.3421 111.876L48.3429 111.751ZM49.011 113.424C48.5597 112.961 48.3354 112.349 48.3429 111.751L58.3421 111.876C58.3665 109.924 57.6404 107.949 56.1698 106.442L49.011 113.424ZM42.3654 106.61L49.011 113.424L56.1698 106.442L49.5242 99.6281L42.3654 106.61ZM47.4882 94.6289L42.4535 99.5401L49.4362 106.698L54.4709 101.787L47.4882 94.6289ZM52.9227 92.4565C50.8889 92.4311 48.9433 93.2097 47.4884 94.6287L54.4706 101.788C54.0286 102.219 53.4184 102.463 52.7978 102.456L52.9227 92.4565ZM58.3011 94.7637C56.882 93.3088 54.9565 92.4818 52.9227 92.4565L52.7978 102.456C52.1773 102.448 51.5734 102.188 51.1423 101.746L58.3011 94.7637ZM63.0994 99.6834L58.3011 94.7637L51.1423 101.746L55.9406 106.666L63.0994 99.6834ZM59.771 99.6418C60.7001 98.7356 62.1931 98.7542 63.0994 99.6834L55.9405 106.666C58.8905 109.69 63.7287 109.751 66.7532 106.801L59.771 99.6418Z" fill="#38D9C0" mask="url(#path-4-inside-1_1791_20409)"/>
<path d="M0.213666 127.122C0.095854 136.558 7.67671 144.33 17.112 144.448C26.5473 144.566 34.3199 136.985 34.4377 127.55C34.5555 118.114 26.9746 110.342 17.5393 110.224C8.10404 110.106 0.331479 117.687 0.213666 127.122Z" fill="#FF6666"/>
<defs>
<clipPath id="clip0_1791_20409">
<rect width="97.3544" height="97.3544" fill="white" transform="translate(98.1973) rotate(15)"/>
</clipPath>
</defs>
</svg>
