<svg width="403" height="317" viewBox="0 0 403 317" fill="none" xmlns="http://www.w3.org/2000/svg">
<path d="M392.632 218.163L154.791 185.072C151.904 184.703 149.251 183.295 147.328 181.11C145.405 178.926 144.345 176.115 144.345 173.205L141.083 7.23205C141.083 7.23205 146.504 3.32362 149.576 1.82402C151.2 1.03147 153.02 0.731853 154.812 0.962186L391.947 31.217C394.834 31.5851 397.488 32.9936 399.411 35.1783C401.334 37.363 402.394 40.1741 402.392 43.0845V206.097C402.395 207.47 402.092 208.827 401.505 210.068C400.919 211.31 400.063 212.406 399.001 213.276C397.101 214.849 392.632 218.163 392.632 218.163Z" fill="#99FFC8"/>
<path d="M385.371 220.369L148.24 190.114C145.354 189.745 142.701 188.336 140.778 186.152C138.855 183.967 137.794 181.156 137.795 178.246V15.234C137.794 13.9141 138.075 12.6092 138.618 11.4061C139.16 10.2031 139.954 9.12958 140.944 8.25706C141.934 7.38454 143.099 6.73306 144.361 6.34599C145.623 5.95892 146.953 5.84515 148.262 6.01228L385.397 36.2671C388.283 36.6361 390.937 38.0448 392.859 40.2293C394.782 42.4139 395.843 45.2244 395.842 48.1346V211.143C395.842 212.463 395.561 213.768 395.018 214.971C394.474 216.174 393.681 217.248 392.69 218.121C391.7 218.994 390.535 219.646 389.273 220.033C388.011 220.421 386.681 220.535 385.371 220.369Z" fill="#CAFFF9"/>
<path d="M380.333 213.643L153.907 184.771C151.809 184.504 149.881 183.482 148.482 181.896C147.084 180.309 146.311 178.268 146.31 176.153V18.8935C146.309 18.0116 146.497 17.1398 146.86 16.3361C147.223 15.5323 147.752 14.8151 148.414 14.2321C149.076 13.6491 149.854 13.2137 150.697 12.955C151.54 12.6962 152.429 12.62 153.303 12.7314L379.725 41.6029C381.823 41.871 383.751 42.8937 385.149 44.4798C386.547 46.0659 387.32 48.1069 387.323 50.2213V207.459C387.327 208.343 387.142 209.217 386.781 210.023C386.42 210.83 385.891 211.55 385.229 212.135C384.567 212.72 383.788 213.158 382.944 213.418C382.1 213.678 381.21 213.755 380.333 213.643Z" fill="#38D9C0"/>
<path d="M189.179 75.541L194.864 85.9406C194.91 86.0595 194.988 86.1633 195.089 86.2407C195.191 86.3181 195.311 86.3661 195.438 86.3792C195.565 86.3924 195.693 86.3703 195.808 86.3153C195.923 86.2604 196.02 86.1749 196.09 86.068L205.594 70.2571C205.627 70.2011 205.646 70.1383 205.651 70.0734C205.656 70.0086 205.646 69.9436 205.622 69.8833C205.597 69.823 205.559 69.769 205.511 69.7257C205.463 69.6823 205.405 69.6507 205.342 69.6332L202.919 68.477C202.836 68.4487 202.747 68.4502 202.665 68.4815C202.584 68.5128 202.517 68.5718 202.475 68.648L195.932 80.0451C195.893 80.109 195.837 80.1608 195.77 80.1944C195.703 80.2281 195.628 80.2422 195.553 80.2355C195.479 80.2287 195.408 80.2012 195.348 80.156C195.288 80.1108 195.242 80.0498 195.216 79.9799L191.95 74.384C191.912 74.2854 191.837 74.2055 191.741 74.1611C191.644 74.1168 191.535 74.1114 191.435 74.1462L189.329 75.0465C189.249 75.0968 189.189 75.1745 189.161 75.2654C189.134 75.3563 189.14 75.4543 189.179 75.541Z" fill="#99FFC8"/>
<path d="M176.935 48.1204L180.721 42.8075L184.636 43.2829L178.83 50.8824L182.748 59.8028L178.776 59.2872L176.302 53.1242L172.427 58.5213L168.455 58.0058L174.397 50.2782L170.579 41.5089L174.494 41.9844L176.935 48.1204Z" fill="#99FFC8"/>
<path d="M247.028 316.369L3.14971 284.912C2.31435 284.812 1.5468 284.403 0.998694 283.764C0.450586 283.126 0.161781 282.306 0.1893 281.465C0.1893 280.362 0.292717 272.596 0.292717 272.596L129.245 198.845C135.709 195.156 144.065 193.73 151.446 194.673L392.248 225.751C392.961 225.842 393.638 226.119 394.211 226.553C394.784 226.986 395.233 227.563 395.514 228.225L395.902 229.13C395.902 229.13 395.695 235.593 395.777 237.119C395.819 237.746 395.681 238.371 395.38 238.922C395.078 239.474 394.626 239.927 394.075 240.23L268.359 312.142C261.897 315.831 254.409 317.316 247.028 316.369Z" fill="#99FFC8"/>
<path d="M247.029 307.726L4.02069 276.32C3.31527 276.231 2.65582 275.922 2.13579 275.437C1.61575 274.952 1.26149 274.316 1.12324 273.618C0.984988 272.921 1.06973 272.198 1.36548 271.551C1.66122 270.905 2.15296 270.367 2.77101 270.016L127.811 198.561C134.271 194.867 141.76 193.382 149.141 194.329L392.171 225.743C392.875 225.835 393.532 226.145 394.05 226.63C394.568 227.115 394.921 227.75 395.059 228.447C395.197 229.143 395.113 229.865 394.819 230.511C394.526 231.157 394.036 231.694 393.421 232.048L268.381 303.494C261.914 307.192 254.417 308.678 247.029 307.726Z" fill="#CAFFF9"/>
<path d="M172.027 286.083L112.073 278.404C111.735 278.362 111.42 278.214 111.17 277.982C110.921 277.75 110.752 277.446 110.685 277.112C110.619 276.778 110.66 276.432 110.801 276.123C110.943 275.813 111.178 275.556 111.474 275.388L137.721 260.547C140.813 258.782 144.395 258.073 147.926 258.526L207.879 266.214C208.217 266.256 208.533 266.403 208.782 266.635C209.031 266.867 209.201 267.172 209.267 267.506C209.333 267.839 209.293 268.186 209.151 268.495C209.01 268.805 208.774 269.062 208.478 269.23L182.231 284.071C179.139 285.833 175.557 286.539 172.027 286.083Z" fill="#38D9C0"/>
<path d="M294.606 268.067L83.8864 240.635C83.2502 240.552 82.656 240.272 82.1875 239.834C81.719 239.396 81.4 238.821 81.2752 238.192C81.1505 237.563 81.2265 236.91 81.4924 236.327C81.7584 235.743 82.2008 235.257 82.7574 234.938L132.313 206.928C138.147 203.594 144.91 202.252 151.575 203.106L362.295 230.538C362.931 230.621 363.525 230.901 363.994 231.339C364.462 231.778 364.781 232.352 364.906 232.981C365.031 233.611 364.955 234.263 364.689 234.847C364.423 235.431 363.98 235.916 363.424 236.235L313.868 264.245C308.033 267.579 301.271 268.921 294.606 268.067Z" fill="#38D9C0"/>
<path d="M336.582 236.395H336.397L160.582 213.772C160.39 213.756 160.203 213.701 160.033 213.611C159.863 213.521 159.713 213.397 159.592 213.247C159.471 213.097 159.381 212.925 159.329 212.739C159.276 212.554 159.261 212.36 159.286 212.169C159.31 211.978 159.373 211.794 159.471 211.628C159.568 211.462 159.699 211.317 159.854 211.203C160.008 211.088 160.185 211.006 160.372 210.962C160.56 210.918 160.754 210.912 160.944 210.945L336.785 233.568C337.142 233.616 337.468 233.798 337.697 234.078C337.926 234.357 338.04 234.712 338.017 235.072C337.994 235.432 337.836 235.77 337.573 236.018C337.311 236.266 336.965 236.405 336.604 236.408L336.582 236.395Z" fill="#99FFC8"/>
<path d="M301.936 256.94C301.874 256.944 301.812 256.944 301.751 256.94L141.712 236.032C141.526 236.008 141.348 235.947 141.186 235.854C141.024 235.76 140.882 235.636 140.768 235.488C140.654 235.339 140.571 235.17 140.522 234.989C140.474 234.809 140.461 234.621 140.486 234.435C140.51 234.25 140.571 234.071 140.664 233.909C140.757 233.747 140.882 233.606 141.03 233.492C141.178 233.378 141.348 233.294 141.528 233.246C141.709 233.197 141.897 233.185 142.082 233.209L302.108 254.105C302.473 254.144 302.808 254.323 303.044 254.604C303.28 254.884 303.398 255.245 303.374 255.611C303.35 255.977 303.186 256.32 302.916 256.567C302.645 256.815 302.29 256.948 301.923 256.94H301.936Z" fill="#99FFC8"/>
<path d="M252.617 309.492C250.694 309.485 248.774 309.369 246.864 309.143L196.369 302.614C196.177 302.598 195.991 302.544 195.82 302.453C195.65 302.363 195.5 302.24 195.379 302.09C195.258 301.94 195.168 301.767 195.116 301.582C195.063 301.397 195.049 301.203 195.073 301.012C195.098 300.821 195.16 300.637 195.258 300.471C195.356 300.304 195.486 300.16 195.641 300.045C195.796 299.931 195.972 299.849 196.16 299.805C196.347 299.761 196.541 299.755 196.731 299.787L247.213 306.312C257.495 307.497 261.705 305.308 264.782 303.726C280.575 295.539 326.981 268.391 327.446 268.102C327.771 267.928 328.151 267.887 328.506 267.987C328.861 268.088 329.163 268.321 329.35 268.64C329.536 268.958 329.592 269.336 329.505 269.695C329.418 270.053 329.196 270.364 328.885 270.563C328.42 270.838 281.95 298.016 266.096 306.256C263.498 307.583 259.831 309.492 252.617 309.492Z" fill="#1A1F23"/>
<path d="M278.84 66.3871L374.234 78.5945C375.053 78.6997 375.883 78.4979 376.562 78.0279C377.242 77.558 377.723 76.8531 377.914 76.0492L378.025 62.9912C378.134 62.5341 378.145 62.0593 378.058 61.5975C377.972 61.1358 377.789 60.6974 377.521 60.311C377.254 59.9246 376.908 59.5988 376.507 59.3547C376.106 59.1106 375.657 58.9538 375.191 58.8944L279.792 46.6864C278.973 46.5816 278.144 46.7832 277.464 47.2524C276.784 47.7216 276.302 48.4253 276.109 49.2284L275.998 62.2893C275.889 62.747 275.878 63.2226 275.965 63.6851C276.052 64.1475 276.236 64.5863 276.504 64.973C276.772 65.3597 277.119 65.6855 277.522 65.9291C277.924 66.1728 278.374 66.3289 278.84 66.3871Z" fill="#CAFFF9"/>
<path d="M221.276 59.3543L266.361 65.1239C266.748 65.1738 267.161 64.9186 267.519 64.4075C267.877 63.8964 268.156 63.1656 268.301 62.3558L269.221 49.4015C269.304 48.9411 269.341 48.4695 269.33 48.0174C269.319 47.5653 269.26 47.1429 269.157 46.7775C269.054 46.4121 268.909 46.112 268.732 45.8966C268.555 45.6813 268.35 45.5556 268.13 45.5276L223.042 39.7578C222.654 39.7083 222.242 39.9632 221.884 40.4736C221.526 40.9839 221.247 41.7137 221.101 42.5228L220.18 55.48C220.097 55.9411 220.06 56.4134 220.072 56.8661C220.083 57.3188 220.142 57.7418 220.245 58.1073C220.349 58.4729 220.494 58.7729 220.671 58.9878C220.849 59.2027 221.055 59.3275 221.276 59.3543Z" fill="#CAFFF9"/>
<path d="M278.84 97.1567L374.234 109.364C375.053 109.469 375.883 109.267 376.562 108.797C377.242 108.327 377.723 107.623 377.914 106.819L378.025 93.7607C378.134 93.3037 378.145 92.8288 378.058 92.3671C377.972 91.9053 377.789 91.467 377.521 91.0806C377.254 90.6941 376.908 90.3683 376.507 90.1242C376.106 89.8802 375.657 89.7233 375.191 89.6639L279.792 77.4559C278.973 77.3512 278.144 77.5528 277.464 78.0219C276.784 78.4911 276.302 79.1948 276.109 79.998L275.998 93.0588C275.889 93.5166 275.878 93.9922 275.965 94.4546C276.052 94.917 276.236 95.3559 276.504 95.7425C276.772 96.1292 277.119 96.455 277.522 96.6987C277.924 96.9423 278.374 97.0984 278.84 97.1567Z" fill="#CAFFF9"/>
<path d="M221.276 90.1239L266.361 95.8934C266.748 95.9433 267.161 95.6881 267.519 95.1771C267.877 94.666 268.156 93.9351 268.301 93.1253L269.221 80.171C269.304 79.7106 269.341 79.239 269.33 78.7869C269.319 78.3349 269.26 77.9124 269.157 77.547C269.054 77.1816 268.909 76.8815 268.732 76.6662C268.555 76.4508 268.35 76.3251 268.13 76.2972L223.042 70.5273C222.654 70.4779 222.242 70.7328 221.884 71.2431C221.526 71.7534 221.247 72.4832 221.101 73.2923L220.18 86.2495C220.097 86.7106 220.06 87.1829 220.072 87.6357C220.083 88.0884 220.142 88.5113 220.245 88.8769C220.349 89.2424 220.494 89.5425 220.671 89.7573C220.849 89.9722 221.055 90.0971 221.276 90.1239Z" fill="#CAFFF9"/>
<path d="M221.856 123.157L317.249 135.364C318.069 135.469 318.898 135.267 319.578 134.797C320.257 134.327 320.739 133.623 320.93 132.819L321.04 119.761C321.149 119.304 321.161 118.829 321.074 118.367C320.987 117.905 320.804 117.467 320.537 117.081C320.27 116.694 319.924 116.368 319.523 116.124C319.121 115.88 318.673 115.723 318.207 115.664L222.808 103.456C221.989 103.351 221.16 103.553 220.48 104.022C219.8 104.491 219.317 105.195 219.125 105.998L219.014 119.059C218.905 119.517 218.894 119.992 218.981 120.455C219.068 120.917 219.252 121.356 219.52 121.743C219.788 122.129 220.135 122.455 220.537 122.699C220.94 122.942 221.389 123.098 221.856 123.157Z" fill="#CAFFF9"/>
<path d="M164.291 116.124L209.377 121.893C209.764 121.943 210.177 121.688 210.535 121.177C210.893 120.666 211.171 119.935 211.317 119.125L212.237 106.171C212.319 105.711 212.357 105.239 212.345 104.787C212.334 104.335 212.275 103.912 212.173 103.547C212.07 103.182 211.925 102.882 211.748 102.666C211.571 102.451 211.366 102.325 211.145 102.297L166.057 96.5273C165.67 96.4779 165.258 96.7328 164.9 97.2431C164.541 97.7534 164.262 98.4832 164.116 99.2923L163.196 112.25C163.113 112.711 163.076 113.183 163.087 113.636C163.098 114.088 163.158 114.511 163.261 114.877C163.364 115.242 163.51 115.542 163.687 115.757C163.865 115.972 164.07 116.097 164.291 116.124Z" fill="#CAFFF9"/>
<path d="M164.291 151.126L209.377 156.895C209.764 156.945 210.177 156.69 210.535 156.179C210.893 155.668 211.171 154.937 211.317 154.127L212.237 141.173C212.319 140.713 212.357 140.241 212.345 139.789C212.334 139.337 212.275 138.914 212.173 138.549C212.07 138.184 211.925 137.883 211.748 137.668C211.571 137.453 211.366 137.327 211.145 137.299L166.057 131.529C165.67 131.48 165.258 131.735 164.9 132.245C164.541 132.755 164.262 133.485 164.116 134.294L163.196 147.251C163.113 147.713 163.076 148.185 163.087 148.638C163.098 149.09 163.158 149.513 163.261 149.879C163.364 150.244 163.51 150.544 163.687 150.759C163.865 150.974 164.07 151.099 164.291 151.126Z" fill="#CAFFF9"/>
<path d="M292.252 180.03L294.562 175.124L289.891 171.485C290.219 170.267 290.445 169.024 290.566 167.768L296.206 165.991L295.753 160.588L289.887 159.772C289.56 158.555 289.133 157.368 288.609 156.222L292.619 151.861L289.532 147.415L284.037 149.626C283.144 148.735 282.178 147.92 281.148 147.191L282.428 141.409L277.522 139.1L273.885 143.772C272.667 143.442 271.423 143.216 270.168 143.096L268.389 137.455L262.99 137.912L262.174 143.778C260.958 144.105 259.771 144.532 258.625 145.055L254.258 141.055L249.805 144.147L252.028 149.628C251.137 150.521 250.323 151.488 249.594 152.518L243.813 151.238L241.503 156.141L246.175 159.782C245.845 160.999 245.619 162.242 245.499 163.498L239.859 165.277L240.311 170.679L246.178 171.496C246.504 172.713 246.931 173.9 247.455 175.045L243.455 179.412L246.542 183.858L252.02 181.635C252.913 182.526 253.88 183.34 254.91 184.069L253.63 189.85L258.536 192.16L262.175 187.489C263.392 187.818 264.635 188.044 265.891 188.166L267.669 193.804L273.071 193.352L273.888 187.485C275.104 187.159 276.291 186.732 277.437 186.209L281.805 190.21L286.251 187.123L284.028 181.642C284.919 180.749 285.732 179.783 286.46 178.754L292.252 180.03ZM262.088 178.259C259.591 177.083 257.499 175.193 256.075 172.829C254.652 170.464 253.962 167.73 254.093 164.973C254.223 162.216 255.168 159.56 256.808 157.34C258.449 155.12 260.71 153.436 263.307 152.501C265.904 151.567 268.72 151.423 271.399 152.089C274.077 152.755 276.498 154.2 278.356 156.241C280.213 158.283 281.423 160.83 281.834 163.559C282.244 166.288 281.835 169.078 280.66 171.576C279.879 173.234 278.78 174.722 277.424 175.956C276.068 177.189 274.483 178.143 272.758 178.764C271.034 179.384 269.204 179.659 267.373 179.573C265.542 179.486 263.747 179.04 262.088 178.259Z" fill="#99FFC8"/>
<path d="M245.238 181.822C245.199 181.787 245.164 181.748 245.134 181.705L242.047 177.259C241.967 177.143 241.929 177.003 241.938 176.863C241.948 176.722 242.004 176.589 242.099 176.485L245.825 172.419C245.418 171.485 245.073 170.527 244.791 169.548L239.327 168.789C239.187 168.77 239.058 168.704 238.961 168.601C238.864 168.499 238.805 168.366 238.794 168.226L238.342 162.824C238.329 162.684 238.365 162.544 238.444 162.427C238.522 162.31 238.638 162.224 238.772 162.182L244.021 160.529C244.136 159.515 244.32 158.51 244.569 157.521L240.219 154.131C240.108 154.045 240.03 153.923 239.997 153.786C239.964 153.649 239.979 153.505 240.039 153.378L242.349 148.474C242.408 148.347 242.51 148.243 242.636 148.181C242.763 148.119 242.907 148.102 243.044 148.132L248.431 149.319C249.036 148.497 249.694 147.717 250.401 146.981L248.331 141.877C248.278 141.746 248.271 141.602 248.311 141.467C248.352 141.333 248.437 141.216 248.552 141.136L252.998 138.049C253.114 137.968 253.253 137.929 253.394 137.939C253.535 137.948 253.668 138.005 253.772 138.101L257.838 141.827C258.771 141.42 259.73 141.074 260.708 140.793L261.467 135.328C261.487 135.189 261.553 135.06 261.655 134.963C261.757 134.866 261.889 134.806 262.029 134.794L267.434 134.342C267.574 134.33 267.714 134.367 267.83 134.445C267.947 134.524 268.033 134.64 268.075 134.774L269.728 140.022C270.742 140.138 271.747 140.321 272.737 140.569L276.125 136.221C276.211 136.11 276.333 136.031 276.47 135.998C276.606 135.965 276.75 135.98 276.878 136.039L281.784 138.349C281.911 138.409 282.014 138.511 282.076 138.637C282.138 138.763 282.155 138.907 282.125 139.044L280.937 144.433C281.76 145.037 282.541 145.694 283.276 146.401L288.38 144.332C288.51 144.279 288.655 144.271 288.79 144.311C288.925 144.351 289.042 144.436 289.122 144.552L292.208 149C292.288 149.115 292.327 149.254 292.318 149.395C292.309 149.535 292.252 149.668 292.157 149.772L288.43 153.84C288.837 154.773 289.183 155.732 289.464 156.71L294.929 157.469C295.068 157.488 295.197 157.554 295.294 157.657C295.391 157.759 295.45 157.891 295.462 158.031L295.915 163.433C295.927 163.573 295.891 163.714 295.812 163.831C295.734 163.948 295.618 164.035 295.483 164.076L290.235 165.729C290.119 166.743 289.936 167.748 289.686 168.737L294.037 172.125C294.148 172.212 294.227 172.334 294.26 172.471C294.292 172.608 294.277 172.752 294.217 172.879L291.908 177.785C291.848 177.912 291.747 178.015 291.621 178.077C291.494 178.139 291.351 178.156 291.214 178.126L285.825 176.938C285.221 177.76 284.563 178.542 283.855 179.278L285.925 184.382C285.978 184.512 285.985 184.656 285.945 184.791C285.905 184.926 285.82 185.043 285.705 185.124L281.257 188.209C281.142 188.289 281.003 188.328 280.863 188.318C280.722 188.309 280.59 188.252 280.486 188.157L276.418 184.43C275.485 184.838 274.526 185.184 273.547 185.466L272.788 190.93C272.768 191.07 272.702 191.198 272.6 191.295C272.498 191.392 272.366 191.452 272.226 191.464L266.83 191.921C266.689 191.933 266.549 191.897 266.432 191.819C266.315 191.74 266.228 191.624 266.186 191.489L264.533 186.241C263.519 186.125 262.514 185.942 261.525 185.693L258.137 190.043C258.05 190.154 257.929 190.232 257.792 190.265C257.655 190.297 257.511 190.282 257.384 190.222L252.479 187.913C252.351 187.853 252.248 187.752 252.185 187.625C252.123 187.499 252.106 187.355 252.137 187.218L253.323 181.83C252.502 181.226 251.721 180.568 250.986 179.86L245.881 181.931C245.774 181.974 245.658 181.987 245.544 181.968C245.431 181.948 245.325 181.898 245.238 181.822ZM243.341 176.951L245.868 180.59L250.891 178.555C251.004 178.508 251.128 178.496 251.247 178.52C251.367 178.544 251.476 178.604 251.562 178.691C252.43 179.556 253.37 180.347 254.371 181.055C254.47 181.126 254.547 181.224 254.59 181.338C254.634 181.452 254.643 181.576 254.617 181.695L253.443 186.993L257.451 188.881L260.786 184.6C260.861 184.504 260.963 184.432 261.078 184.393C261.194 184.354 261.319 184.351 261.436 184.382C262.621 184.702 263.829 184.922 265.05 185.04C265.171 185.051 265.287 185.098 265.382 185.175C265.477 185.252 265.547 185.354 265.583 185.471L267.213 190.637L271.627 190.267L272.375 184.892C272.39 184.771 272.441 184.658 272.521 184.565C272.6 184.473 272.705 184.406 272.823 184.374C274.006 184.055 275.16 183.64 276.275 183.132C276.385 183.08 276.509 183.062 276.63 183.081C276.751 183.1 276.863 183.155 276.952 183.239L280.957 186.907L284.595 184.379L282.558 179.358C282.512 179.245 282.5 179.121 282.524 179.001C282.549 178.882 282.608 178.772 282.694 178.687C283.56 177.817 284.351 176.878 285.061 175.878C285.131 175.778 285.229 175.702 285.343 175.658C285.457 175.614 285.581 175.604 285.7 175.63L290.996 176.805L292.884 172.797L288.603 169.462C288.508 169.387 288.436 169.285 288.397 169.17C288.358 169.054 288.354 168.93 288.386 168.812C288.704 167.626 288.922 166.415 289.036 165.192C289.048 165.071 289.094 164.955 289.171 164.861C289.248 164.766 289.351 164.696 289.467 164.659L294.635 163.031L294.263 158.616L288.888 157.867C288.768 157.852 288.655 157.801 288.563 157.722C288.471 157.642 288.404 157.538 288.371 157.421C288.053 156.237 287.637 155.082 287.128 153.967C287.077 153.856 287.061 153.733 287.08 153.613C287.099 153.493 287.153 153.38 287.235 153.291L290.904 149.287L288.376 145.649L283.355 147.686C283.242 147.731 283.118 147.743 282.999 147.719C282.88 147.694 282.77 147.636 282.684 147.549C281.815 146.684 280.875 145.892 279.875 145.183C279.775 145.113 279.698 145.015 279.654 144.901C279.61 144.787 279.601 144.663 279.628 144.544L280.802 139.245L276.793 137.358L273.452 141.646C273.377 141.742 273.276 141.814 273.16 141.853C273.044 141.892 272.92 141.895 272.802 141.864C271.616 141.546 270.405 141.328 269.182 141.213C269.061 141.201 268.946 141.154 268.852 141.078C268.757 141.002 268.687 140.9 268.65 140.784L267.021 135.615L262.607 135.985L261.857 141.361C261.842 141.482 261.792 141.595 261.712 141.687C261.633 141.779 261.528 141.846 261.411 141.878C260.227 142.197 259.072 142.612 257.957 143.121C257.847 143.172 257.723 143.19 257.603 143.171C257.482 143.152 257.37 143.097 257.281 143.015L253.277 139.345L249.639 141.873L251.676 146.894C251.721 147.007 251.733 147.131 251.709 147.25C251.684 147.37 251.626 147.479 251.539 147.565C250.674 148.434 249.882 149.374 249.173 150.374C249.102 150.474 249.004 150.551 248.891 150.595C248.777 150.639 248.653 150.648 248.534 150.622L243.237 149.448L241.35 153.455L245.637 156.796C245.733 156.871 245.805 156.973 245.843 157.088C245.882 157.204 245.886 157.328 245.855 157.446C245.537 158.632 245.319 159.843 245.204 161.066C245.193 161.187 245.146 161.302 245.069 161.397C244.993 161.492 244.89 161.562 244.774 161.599L239.616 163.201L239.987 167.616L245.362 168.365C245.483 168.38 245.597 168.431 245.689 168.51C245.781 168.59 245.848 168.695 245.881 168.812C246.199 169.995 246.615 171.15 247.123 172.265C247.173 172.375 247.19 172.499 247.171 172.619C247.152 172.74 247.098 172.852 247.016 172.941L243.341 176.951ZM257.58 174.154C254.77 171.735 252.982 168.339 252.58 164.653C252.178 160.966 253.19 157.264 255.413 154.296C257.635 151.327 260.902 149.314 264.553 148.662C268.203 148.01 271.965 148.768 275.078 150.784C278.191 152.8 280.422 155.922 281.321 159.52C282.219 163.118 281.718 166.922 279.918 170.165C278.119 173.408 275.155 175.846 271.627 176.987C268.099 178.128 264.268 177.886 260.911 176.311C259.709 175.746 258.589 175.019 257.585 174.149L257.58 174.154ZM261.443 175.193C264.235 176.508 267.396 176.813 270.387 176.058C273.379 175.303 276.016 173.535 277.85 171.053C279.683 168.572 280.6 165.531 280.443 162.45C280.286 159.368 279.066 156.437 276.99 154.154C274.913 151.872 272.11 150.38 269.057 149.933C266.004 149.485 262.891 150.111 260.247 151.702C257.604 153.293 255.594 155.751 254.56 158.658C253.526 161.565 253.531 164.741 254.576 167.644C255.166 169.293 256.077 170.809 257.257 172.104C258.436 173.399 259.861 174.447 261.448 175.188L261.443 175.193Z" fill="#1A1F23"/>
<path d="M363.348 155.716L364.698 152.85L361.966 150.723C362.159 150.011 362.291 149.283 362.359 148.548L365.655 147.51L365.391 144.352L361.967 143.871C361.776 143.159 361.527 142.465 361.221 141.795L363.559 139.243L361.752 136.641L358.548 137.941C358.027 137.42 357.462 136.944 356.86 136.519L357.609 133.141L354.744 131.791L352.615 134.521C351.903 134.328 351.176 134.197 350.442 134.129L349.402 130.832L346.246 131.097L345.764 134.521C345.053 134.712 344.359 134.962 343.69 135.269L341.137 132.929L338.536 134.738L339.835 137.94C339.314 138.462 338.838 139.026 338.413 139.628L335.034 138.879L333.686 141.746L336.414 143.873C336.223 144.585 336.092 145.312 336.022 146.047L332.726 147.087L332.992 150.244L336.416 150.725C336.607 151.436 336.856 152.129 337.162 152.798L334.823 155.352L336.631 157.953L339.834 156.654C340.355 157.175 340.92 157.65 341.522 158.076L340.774 161.455L343.641 162.804L345.766 160.074C346.479 160.265 347.207 160.397 347.941 160.467L348.98 163.762L352.138 163.497L352.62 160.073C353.331 159.883 354.025 159.634 354.694 159.329L357.246 161.667L359.849 159.86L358.548 156.656C359.069 156.134 359.545 155.57 359.97 154.968L363.348 155.716ZM345.725 154.68C344.265 153.993 343.042 152.888 342.211 151.506C341.379 150.124 340.976 148.526 341.052 146.915C341.128 145.304 341.681 143.751 342.639 142.454C343.598 141.156 344.92 140.172 346.438 139.626C347.956 139.08 349.601 138.996 351.167 139.386C352.732 139.775 354.147 140.619 355.233 141.813C356.318 143.006 357.025 144.495 357.265 146.09C357.504 147.685 357.266 149.316 356.578 150.775C355.657 152.732 353.995 154.242 351.96 154.975C349.925 155.707 347.682 155.601 345.725 154.68Z" fill="#99FFC8"/>
<path d="M335.705 156.957C335.666 156.924 335.631 156.885 335.601 156.843L333.794 154.241C333.714 154.125 333.675 153.986 333.684 153.846C333.693 153.705 333.75 153.572 333.845 153.468L335.911 151.214C335.718 150.758 335.55 150.293 335.409 149.819L332.381 149.397C332.241 149.378 332.112 149.312 332.016 149.21C331.919 149.108 331.86 148.976 331.848 148.836L331.584 145.678C331.572 145.538 331.608 145.398 331.686 145.281C331.764 145.164 331.88 145.077 332.014 145.036L334.925 144.118C334.989 143.626 335.079 143.139 335.196 142.658L332.786 140.781C332.674 140.695 332.595 140.573 332.563 140.436C332.53 140.299 332.546 140.155 332.607 140.028L333.955 137.161C334.015 137.034 334.116 136.931 334.242 136.869C334.369 136.807 334.512 136.79 334.649 136.821L337.633 137.481C337.932 137.086 338.252 136.706 338.591 136.345L337.443 133.517C337.39 133.386 337.383 133.242 337.423 133.107C337.464 132.971 337.548 132.854 337.664 132.774L340.267 130.967C340.381 130.885 340.521 130.846 340.661 130.855C340.802 130.865 340.935 130.922 341.038 131.019L343.292 133.082C343.748 132.892 344.214 132.725 344.687 132.583L345.108 129.554C345.128 129.414 345.194 129.285 345.297 129.189C345.399 129.092 345.531 129.033 345.671 129.021L348.827 128.757C348.967 128.744 349.108 128.781 349.225 128.859C349.342 128.938 349.429 129.054 349.47 129.188L350.388 132.099C350.879 132.163 351.366 132.253 351.847 132.369L353.725 129.96C353.812 129.848 353.933 129.77 354.07 129.737C354.207 129.704 354.351 129.718 354.478 129.778L357.345 131.129C357.472 131.189 357.575 131.29 357.637 131.416C357.699 131.543 357.716 131.686 357.685 131.823L357.025 134.807C357.42 135.106 357.8 135.426 358.161 135.765L360.99 134.616C361.12 134.563 361.265 134.557 361.399 134.597C361.534 134.637 361.651 134.722 361.731 134.837L363.539 137.438C363.62 137.554 363.658 137.693 363.649 137.834C363.639 137.975 363.582 138.108 363.487 138.212L361.422 140.465C361.614 140.921 361.781 141.387 361.924 141.86L364.952 142.282C365.092 142.301 365.22 142.368 365.317 142.47C365.413 142.572 365.472 142.704 365.484 142.844L365.749 146.001C365.762 146.141 365.725 146.282 365.647 146.399C365.568 146.516 365.452 146.603 365.318 146.645L362.402 147.559C362.339 148.049 362.249 148.536 362.133 149.017L364.543 150.894C364.655 150.98 364.733 151.102 364.766 151.239C364.798 151.376 364.783 151.52 364.722 151.647L363.374 154.514C363.314 154.641 363.213 154.745 363.086 154.807C362.96 154.869 362.816 154.886 362.678 154.856L359.695 154.195C359.396 154.59 359.077 154.969 358.738 155.33L359.885 158.159C359.938 158.289 359.945 158.434 359.905 158.569C359.865 158.704 359.781 158.821 359.665 158.901L357.062 160.708C356.947 160.789 356.808 160.828 356.667 160.818C356.527 160.809 356.394 160.753 356.29 160.658L354.035 158.591C353.58 158.783 353.114 158.951 352.64 159.094L352.22 162.123C352.2 162.262 352.134 162.391 352.032 162.487C351.93 162.584 351.798 162.643 351.658 162.654L348.507 162.918C348.367 162.929 348.227 162.893 348.11 162.815C347.993 162.736 347.906 162.62 347.864 162.486L346.946 159.575C346.455 159.512 345.968 159.422 345.487 159.306L343.608 161.716C343.521 161.827 343.4 161.906 343.264 161.938C343.127 161.971 342.983 161.956 342.856 161.897L339.988 160.547C339.861 160.487 339.758 160.386 339.696 160.26C339.634 160.133 339.617 159.99 339.648 159.853L340.309 156.868C339.913 156.57 339.534 156.251 339.173 155.912L336.344 157.059C336.239 157.103 336.123 157.116 336.01 157.098C335.897 157.08 335.792 157.032 335.705 156.957ZM335.094 153.94L336.336 155.727L339.079 154.615C339.192 154.569 339.316 154.558 339.436 154.582C339.555 154.607 339.665 154.666 339.751 154.752C340.249 155.248 340.787 155.7 341.36 156.106C341.459 156.177 341.535 156.275 341.579 156.389C341.623 156.503 341.632 156.627 341.606 156.746L340.959 159.649L342.929 160.575L344.749 158.236C344.824 158.14 344.925 158.068 345.041 158.029C345.157 157.99 345.281 157.986 345.399 158.018C346.078 158.201 346.77 158.327 347.47 158.395C347.591 158.406 347.706 158.453 347.8 158.53C347.895 158.606 347.965 158.709 348.002 158.825L348.893 161.648L351.062 161.467L351.471 158.529C351.486 158.409 351.537 158.295 351.617 158.203C351.696 158.111 351.801 158.044 351.918 158.011C352.596 157.829 353.258 157.591 353.897 157.299C354.007 157.249 354.13 157.232 354.251 157.251C354.371 157.271 354.483 157.325 354.572 157.408L356.758 159.41L358.546 158.169L357.447 155.423C357.401 155.31 357.389 155.186 357.414 155.067C357.438 154.947 357.497 154.838 357.583 154.752C358.078 154.254 358.532 153.716 358.938 153.144C359.008 153.044 359.106 152.968 359.22 152.924C359.334 152.88 359.458 152.87 359.577 152.897L362.472 153.538L363.4 151.569L361.061 149.747C360.965 149.672 360.893 149.57 360.854 149.454C360.816 149.339 360.812 149.214 360.843 149.096C361.026 148.418 361.151 147.726 361.219 147.027C361.231 146.906 361.277 146.79 361.354 146.696C361.431 146.601 361.534 146.531 361.65 146.494L364.474 145.605L364.291 143.435L361.353 143.026C361.233 143.011 361.12 142.96 361.028 142.881C360.936 142.801 360.869 142.697 360.836 142.58C360.654 141.902 360.416 141.24 360.125 140.602C360.074 140.491 360.057 140.367 360.076 140.247C360.095 140.127 360.149 140.015 360.232 139.925L362.234 137.739L360.993 135.951L358.249 137.064C358.136 137.11 358.012 137.121 357.893 137.097C357.774 137.073 357.664 137.014 357.578 136.928C357.081 136.432 356.542 135.978 355.969 135.572C355.869 135.502 355.792 135.403 355.749 135.289C355.705 135.175 355.696 135.051 355.723 134.932L356.363 132.038L354.394 131.11L352.573 133.45C352.498 133.546 352.396 133.618 352.28 133.657C352.165 133.695 352.04 133.699 351.923 133.668C351.244 133.484 350.552 133.358 349.852 133.291C349.731 133.279 349.616 133.232 349.522 133.156C349.427 133.079 349.358 132.976 349.321 132.86L348.43 130.036L346.26 130.219L345.852 133.155C345.837 133.276 345.786 133.39 345.706 133.482C345.627 133.574 345.522 133.641 345.405 133.674C344.727 133.856 344.065 134.094 343.427 134.385C343.316 134.437 343.192 134.454 343.072 134.435C342.951 134.416 342.839 134.362 342.75 134.278L340.564 132.276L338.776 133.517L339.889 136.261C339.935 136.374 339.946 136.498 339.922 136.617C339.898 136.736 339.839 136.846 339.753 136.932C339.257 137.429 338.803 137.968 338.397 138.541C338.327 138.64 338.228 138.717 338.115 138.761C338.001 138.805 337.877 138.815 337.758 138.788L334.857 138.139L333.931 140.11L336.268 141.931C336.364 142.006 336.436 142.108 336.475 142.223C336.513 142.339 336.517 142.463 336.486 142.581C336.302 143.259 336.176 143.951 336.11 144.65C336.098 144.772 336.051 144.887 335.975 144.982C335.898 145.077 335.796 145.147 335.679 145.184L332.854 146.074L333.036 148.244L335.975 148.653C336.095 148.668 336.209 148.718 336.301 148.798C336.393 148.877 336.459 148.982 336.492 149.099C336.675 149.777 336.913 150.438 337.203 151.077C337.254 151.188 337.271 151.311 337.253 151.431C337.234 151.551 337.18 151.663 337.098 151.753L335.094 153.94ZM342.934 152.482C341.251 151.029 340.182 148.992 339.943 146.781C339.705 144.571 340.315 142.352 341.649 140.574C342.984 138.796 344.945 137.591 347.134 137.203C349.323 136.815 351.578 137.272 353.443 138.483C355.307 139.695 356.643 141.568 357.178 143.726C357.714 145.884 357.411 148.165 356.329 150.108C355.247 152.05 353.468 153.51 351.352 154.191C349.235 154.872 346.939 154.724 344.927 153.776C344.205 153.436 343.533 152.999 342.928 152.477L342.934 152.482ZM353.593 140.128C352.779 139.423 351.823 138.901 350.79 138.597C349.757 138.292 348.671 138.213 347.605 138.363C346.539 138.514 345.517 138.891 344.609 139.469C343.701 140.048 342.927 140.814 342.34 141.717C341.753 142.62 341.366 143.638 341.205 144.702C341.044 145.767 341.113 146.854 341.408 147.89C341.702 148.925 342.215 149.886 342.912 150.707C343.609 151.528 344.474 152.19 345.448 152.648C347.096 153.424 348.969 153.577 350.721 153.079C352.473 152.581 353.985 151.465 354.978 149.938C355.971 148.412 356.378 146.577 356.123 144.774C355.869 142.971 354.97 141.32 353.593 140.128Z" fill="#1A1F23"/>
<path d="M290.331 142.821C290.303 142.797 290.279 142.77 290.257 142.741C290.16 142.605 290.134 142.416 290.182 142.215C290.231 142.015 290.351 141.818 290.516 141.669C292.21 140.152 293.958 138.715 295.753 137.365C295.84 137.299 295.934 137.249 296.029 137.217C296.125 137.185 296.219 137.172 296.308 137.179C296.397 137.185 296.478 137.212 296.547 137.256C296.616 137.3 296.671 137.361 296.709 137.436C296.748 137.511 296.769 137.598 296.771 137.692C296.773 137.786 296.757 137.886 296.723 137.985C296.688 138.084 296.637 138.181 296.571 138.271C296.505 138.36 296.427 138.439 296.34 138.505C294.594 139.816 292.893 141.213 291.247 142.688C291.101 142.819 290.929 142.904 290.761 142.928C290.594 142.953 290.442 142.915 290.331 142.821ZM300.922 134.844C300.859 134.79 300.812 134.719 300.783 134.636C300.754 134.554 300.744 134.462 300.752 134.365C300.761 134.268 300.788 134.167 300.832 134.069C300.876 133.971 300.936 133.878 301.009 133.794C301.082 133.71 301.167 133.638 301.258 133.581C303.13 132.412 305.034 131.34 306.96 130.371C307.055 130.321 307.152 130.29 307.247 130.278C307.342 130.266 307.432 130.275 307.512 130.303C307.593 130.331 307.662 130.379 307.715 130.442C307.768 130.505 307.805 130.584 307.823 130.673C307.841 130.762 307.841 130.859 307.821 130.959C307.801 131.06 307.762 131.161 307.707 131.257C307.652 131.353 307.582 131.443 307.5 131.52C307.419 131.596 307.328 131.66 307.233 131.705C305.361 132.649 303.511 133.691 301.692 134.826C301.556 134.912 301.41 134.959 301.273 134.962C301.136 134.965 301.014 134.924 300.922 134.844ZM312.284 129.127C312.184 129.041 312.125 128.914 312.114 128.764C312.107 128.672 312.119 128.573 312.149 128.473C312.179 128.374 312.226 128.275 312.289 128.184C312.351 128.093 312.427 128.01 312.512 127.941C312.597 127.872 312.69 127.817 312.785 127.781C314.742 127.028 316.706 126.388 318.666 125.865C318.761 125.839 318.855 125.833 318.941 125.846C319.027 125.86 319.105 125.892 319.169 125.943C319.233 125.993 319.283 126.059 319.315 126.138C319.348 126.218 319.362 126.308 319.358 126.404C319.354 126.5 319.331 126.6 319.29 126.699C319.25 126.798 319.193 126.893 319.123 126.979C319.052 127.065 318.97 127.14 318.881 127.2C318.791 127.26 318.696 127.305 318.601 127.33C316.697 127.839 314.79 128.46 312.889 129.19C312.777 129.233 312.665 129.25 312.561 129.24C312.457 129.229 312.365 129.192 312.291 129.13L312.284 129.127ZM323.85 126.038C323.753 125.956 323.693 125.835 323.678 125.691C323.664 125.548 323.695 125.39 323.769 125.237C323.842 125.085 323.953 124.947 324.087 124.841C324.222 124.735 324.373 124.667 324.519 124.646C326.455 124.359 328.372 124.19 330.258 124.138C330.35 124.136 330.435 124.153 330.51 124.189C330.585 124.225 330.647 124.278 330.693 124.347C330.74 124.416 330.769 124.498 330.78 124.589C330.791 124.68 330.783 124.778 330.757 124.877C330.731 124.977 330.687 125.076 330.628 125.169C330.568 125.262 330.495 125.347 330.412 125.419C330.329 125.491 330.237 125.549 330.142 125.589C330.048 125.63 329.952 125.652 329.86 125.654C328.028 125.702 326.166 125.867 324.285 126.147C324.118 126.172 323.966 126.134 323.855 126.04L323.85 126.038ZM334.987 125.739C334.881 125.648 334.82 125.511 334.814 125.351C334.808 125.19 334.857 125.015 334.953 124.854C335.049 124.693 335.186 124.554 335.343 124.462C335.5 124.369 335.667 124.327 335.818 124.343C337.63 124.528 339.398 124.828 341.114 125.242C341.282 125.283 341.406 125.4 341.459 125.568C341.512 125.736 341.489 125.941 341.396 126.138C341.302 126.335 341.146 126.507 340.961 126.618C340.776 126.728 340.578 126.767 340.41 126.726C338.742 126.324 337.024 126.032 335.263 125.852C335.157 125.841 335.063 125.801 334.989 125.737L334.987 125.739Z" fill="#99FFC8"/>
<path d="M292.239 182.218C292.194 182.111 292.193 181.989 292.235 181.865C292.278 181.741 292.362 181.62 292.478 181.516C292.594 181.412 292.738 181.329 292.893 181.277C293.048 181.224 293.208 181.205 293.356 181.22C295.429 181.427 297.551 181.525 299.708 181.513C299.926 181.512 300.114 181.581 300.23 181.705C300.346 181.828 300.381 181.997 300.327 182.174C300.273 182.35 300.135 182.52 299.943 182.645C299.751 182.771 299.521 182.842 299.303 182.843C297.077 182.856 294.888 182.755 292.748 182.541C292.627 182.529 292.517 182.493 292.429 182.437C292.341 182.381 292.276 182.306 292.239 182.218ZM305.35 182.151C305.317 182.074 305.307 181.988 305.322 181.899C305.335 181.812 305.37 181.724 305.424 181.639C305.478 181.555 305.551 181.476 305.638 181.407C305.726 181.337 305.826 181.279 305.933 181.236C306.04 181.192 306.152 181.164 306.262 181.152C308.468 180.925 310.688 180.589 312.909 180.146C313.127 180.109 313.335 180.138 313.488 180.227C313.641 180.317 313.727 180.46 313.729 180.626C313.731 180.792 313.648 180.969 313.497 181.119C313.347 181.269 313.141 181.381 312.922 181.431C310.63 181.889 308.339 182.237 306.063 182.473C305.899 182.488 305.745 182.465 305.621 182.407C305.496 182.348 305.406 182.257 305.361 182.144L305.35 182.151ZM318.849 179.455C318.834 179.428 318.822 179.399 318.813 179.369C318.783 179.206 318.843 179.023 318.978 178.861C319.114 178.698 319.315 178.57 319.537 178.504C320.075 178.344 320.618 178.177 321.166 178.001C322.808 177.473 324.457 176.881 326.065 176.243C326.172 176.199 326.284 176.171 326.395 176.161C326.505 176.15 326.612 176.156 326.708 176.18C326.805 176.204 326.889 176.244 326.957 176.299C327.024 176.353 327.073 176.421 327.101 176.497C327.159 176.652 327.128 176.834 327.015 177.003C326.903 177.173 326.718 177.317 326.501 177.404C324.842 178.063 323.14 178.673 321.445 179.218C320.879 179.4 320.321 179.572 319.764 179.736C319.566 179.791 319.367 179.792 319.202 179.739C319.037 179.687 318.916 179.584 318.861 179.448L318.849 179.455ZM331.892 174.275C331.832 174.132 331.851 173.964 331.943 173.802C332.035 173.64 332.194 173.496 332.389 173.399C334.445 172.357 336.446 171.23 338.381 170.023C338.478 169.96 338.586 169.91 338.698 169.876C338.809 169.843 338.923 169.826 339.032 169.827C339.142 169.828 339.244 169.847 339.333 169.882C339.422 169.917 339.497 169.969 339.552 170.033C339.608 170.097 339.643 170.173 339.655 170.256C339.668 170.339 339.658 170.428 339.626 170.517C339.594 170.605 339.541 170.692 339.47 170.773C339.398 170.853 339.31 170.925 339.21 170.985C337.212 172.228 335.147 173.389 333.026 174.46C332.922 174.512 332.811 174.549 332.699 174.57C332.587 174.591 332.477 174.595 332.374 174.581C332.271 174.568 332.178 174.537 332.1 174.491C332.022 174.445 331.961 174.385 331.919 174.314L331.892 174.275ZM343.662 166.954C343.612 166.836 343.615 166.7 343.671 166.564C343.726 166.428 343.831 166.298 343.97 166.192C344.626 165.694 345.275 165.181 345.921 164.66C346.006 164.588 346.106 164.528 346.212 164.481C346.319 164.435 346.432 164.404 346.544 164.39C346.655 164.377 346.764 164.38 346.863 164.401C346.962 164.422 347.049 164.46 347.12 164.513C347.191 164.565 347.244 164.631 347.276 164.707C347.308 164.782 347.318 164.866 347.306 164.953C347.294 165.041 347.26 165.129 347.206 165.215C347.152 165.3 347.079 165.38 346.991 165.45C346.349 165.98 345.658 166.517 344.977 167.035C344.887 167.103 344.785 167.159 344.676 167.2C344.568 167.241 344.456 167.266 344.346 167.275C344.236 167.283 344.13 167.274 344.035 167.249C343.939 167.223 343.857 167.181 343.791 167.125C343.737 167.074 343.698 167.014 343.673 166.947L343.662 166.954Z" fill="#99FFC8"/>
</svg>
    
    




  
  