<svg width="33" height="32" viewBox="0 0 33 32" fill="none" xmlns="http://www.w3.org/2000/svg">
  <path d="M7.61144 23.11H6.72255C5.77956 23.11 4.87519 22.7354 4.20839 22.0686C3.54159 21.4018 3.16699 20.4975 3.16699 19.5545V15.9989C3.16699 15.0559 3.54159 14.1516 4.20839 13.4848C4.87519 12.818 5.77956 12.4434 6.72255 12.4434H7.61144C7.84718 12.4434 8.07328 12.537 8.23998 12.7037C8.40668 12.8704 8.50033 13.0965 8.50033 13.3322V22.2211C8.50033 22.4569 8.40668 22.683 8.23998 22.8497C8.07328 23.0164 7.84718 23.11 7.61144 23.11Z" stroke="#38D9C0" stroke-width="2" stroke-linecap="round" stroke-linejoin="round"/>
  <path d="M26.2778 23.11H25.3889C25.1531 23.11 24.927 23.0164 24.7603 22.8497C24.5936 22.683 24.5 22.4569 24.5 22.2211V13.3322C24.5 13.0965 24.5936 12.8704 24.7603 12.7037C24.927 12.537 25.1531 12.4434 25.3889 12.4434H26.2778C27.2208 12.4434 28.1251 12.818 28.7919 13.4848C29.4587 14.1516 29.8333 15.0559 29.8333 15.9989V19.5545C29.8333 20.4975 29.4587 21.4018 28.7919 22.0686C28.1251 22.7354 27.2208 23.11 26.2778 23.11Z" stroke="#38D9C0" stroke-width="2" stroke-linecap="round" stroke-linejoin="round"/>
  <path d="M6.72266 12.4438C6.72266 9.85057 7.75281 7.36355 9.5865 5.52986C11.4202 3.69617 13.9072 2.66602 16.5004 2.66602V2.66602C19.0937 2.66602 21.5807 3.69617 23.4144 5.52986C25.2481 7.36355 26.2782 9.85057 26.2782 12.4438" stroke="#38D9C0" stroke-width="2" stroke-linecap="round" stroke-linejoin="round"/>
  <path d="M20.0557 27.5558H22.7223C23.6653 27.5558 24.5697 27.1812 25.2365 26.5144C25.9033 25.8476 26.2779 24.9432 26.2779 24.0002V23.1113" stroke="#38D9C0" stroke-width="2" stroke-linecap="round" stroke-linejoin="round"/>
  <path d="M18.2782 29.3329H16.5004C16.0289 29.3329 15.5768 29.1456 15.2434 28.8122C14.91 28.4788 14.7227 28.0266 14.7227 27.5551C14.7227 27.0836 14.91 26.6314 15.2434 26.298C15.5768 25.9646 16.0289 25.7773 16.5004 25.7773H18.2782C18.7497 25.7773 19.2019 25.9646 19.5353 26.298C19.8687 26.6314 20.056 27.0836 20.056 27.5551C20.056 28.0266 19.8687 28.4788 19.5353 28.8122C19.2019 29.1456 18.7497 29.3329 18.2782 29.3329Z" stroke="#38D9C0" stroke-width="2" stroke-linecap="round" stroke-linejoin="round"/>
  </svg>
  