<svg width="33" height="32" viewBox="0 0 33 32" fill="none" xmlns="http://www.w3.org/2000/svg">
  <path d="M7.16699 22.6667H5.83366C5.12641 22.6667 4.44814 22.3857 3.94804 21.8856C3.44794 21.3855 3.16699 20.7072 3.16699 20V6.66667C3.16699 5.95942 3.44794 5.28115 3.94804 4.78105C4.44814 4.28095 5.12641 4 5.83366 4H27.167C27.8742 4 28.5525 4.28095 29.0526 4.78105C29.5527 5.28115 29.8337 5.95942 29.8337 6.66667V20C29.8337 20.7072 29.5527 21.3855 29.0526 21.8856C28.5525 22.3857 27.8742 22.6667 27.167 22.6667H25.8337" stroke="#38D9C0" stroke-width="2" stroke-linecap="round" stroke-linejoin="round"/>
  <path d="M16.4997 20L23.1663 28H9.83301L16.4997 20Z" stroke="#FF6666" stroke-width="2" stroke-linecap="round" stroke-linejoin="round"/>
  </svg>
  