<svg width="103" height="16" viewBox="0 0 103 16" fill="none" xmlns="http://www.w3.org/2000/svg">
<path d="M31.0112 15.999C30.288 16.0106 29.5742 15.8377 28.9399 15.4974C28.3455 15.1765 27.8489 14.7065 27.5011 14.1356C27.1456 13.5358 26.9637 12.8523 26.9751 12.1588V5.12305H29.1136V10.67L28.0733 10.847C28.0745 10.3898 28.2256 9.94502 28.5043 9.57828C28.7946 9.17931 29.1794 8.85533 29.6257 8.63412C30.0906 8.39725 30.6077 8.27568 31.1317 8.28006C31.8436 8.2652 32.5472 8.43262 33.1728 8.76576C33.7527 9.08454 34.2295 9.55636 34.5491 10.1275C34.8893 10.7462 35.0609 11.4403 35.0472 12.1429C35.0529 12.8196 34.8703 13.4849 34.519 14.0676C34.173 14.6491 33.6778 15.1318 33.0825 15.4679C32.4537 15.825 31.7379 16.0085 31.0112 15.999ZM31.0112 14.0222C31.3489 14.0276 31.6817 13.9425 31.9737 13.7761C32.2657 13.6097 32.5057 13.3683 32.6678 13.078C32.8247 12.7931 32.9044 12.4735 32.8995 12.1497C32.9051 11.818 32.8254 11.4902 32.6678 11.1965C32.5107 10.915 32.2795 10.6799 31.9982 10.5156C31.6984 10.3463 31.3572 10.26 31.0112 10.266C30.6753 10.2596 30.3441 10.3434 30.0533 10.5083C29.7625 10.6731 29.5233 10.9126 29.3615 11.201C29.1964 11.4925 29.111 11.8209 29.1136 12.1543C29.113 12.4787 29.198 12.7978 29.3603 13.0805C29.5227 13.3633 29.757 13.6001 30.0404 13.768C30.3335 13.9391 30.67 14.0256 31.0112 14.0176V14.0222Z" fill="#1A1F23"/>
<path d="M37.8488 7.39432C37.6142 7.39611 37.3833 7.33741 37.1792 7.2241C36.9761 7.11474 36.8089 6.951 36.6973 6.75203C36.5818 6.55203 36.5219 6.32587 36.5235 6.09611C36.521 5.8684 36.581 5.64422 36.6973 5.447C36.8141 5.24879 36.9839 5.08556 37.1885 4.97493C37.3911 4.85749 37.6226 4.7963 37.858 4.7979C38.0914 4.79592 38.3207 4.85718 38.5207 4.97493C38.7135 5.09122 38.873 5.25368 38.9841 5.447C39.0985 5.64485 39.1576 5.86874 39.1555 6.09611C39.1568 6.32554 39.0977 6.55142 38.9841 6.75203C38.8756 6.94724 38.7156 7.1103 38.5207 7.2241C38.3165 7.33924 38.0843 7.39806 37.8488 7.39432ZM36.7784 8.486H38.9169V15.7873H36.7784V8.486Z" fill="#1A1F23"/>
<path d="M46.4042 10.256H40.2598V8.48576H46.4042V10.256ZM44.8519 15.9981C44.2329 16.0196 43.6187 15.8852 43.0679 15.6078C42.6034 15.3601 42.2274 14.9792 41.9905 14.5161C41.7413 14.013 41.6174 13.4592 41.6291 12.9001V6.62695H43.7676V12.8366C43.757 13.0088 43.7824 13.1814 43.8422 13.3437C43.9019 13.506 43.9948 13.6547 44.1151 13.7807C44.2381 13.8959 44.3836 13.9855 44.5429 14.044C44.7022 14.1025 44.8719 14.1288 45.0419 14.1212C45.2802 14.119 45.5174 14.0893 45.7485 14.0327C45.9792 13.9826 46.1988 13.8927 46.3973 13.7671V15.6395C46.1732 15.7605 45.9319 15.8477 45.6813 15.8983C45.4095 15.9616 45.1313 15.9951 44.8519 15.9981Z" fill="#1A1F23"/>
<path d="M51.5245 15.9796C50.8194 15.9891 50.1242 15.8159 49.5094 15.4775C48.8947 15.1391 48.3821 14.6476 48.0236 14.0527C47.6731 13.4653 47.4883 12.7972 47.4883 12.1168C47.4883 11.4363 47.6731 10.7682 48.0236 10.1808C48.3876 9.58765 48.902 9.09686 49.5168 8.75613C50.1317 8.4154 50.8262 8.23633 51.5326 8.23633C52.239 8.23633 52.9335 8.4154 53.5483 8.75613C54.1632 9.09686 54.6776 9.58765 55.0416 10.1808C55.3893 10.7666 55.5725 11.4323 55.5725 12.1099C55.5725 12.7876 55.3893 13.4533 55.0416 14.0391C54.6794 14.6343 54.1638 15.1257 53.5464 15.4639C52.9291 15.8021 52.2318 15.9753 51.5245 15.966V15.9796ZM51.5245 14.0164C51.8717 14.0225 52.2137 13.9328 52.5115 13.7577C52.9391 13.495 53.2476 13.0817 53.3735 12.6029C53.4994 12.1241 53.433 11.6162 53.188 11.1839C53.025 10.9045 52.7922 10.6702 52.5115 10.5031C52.2137 10.3279 51.8717 10.2383 51.5245 10.2443C51.1824 10.2391 50.8459 10.3288 50.5537 10.5031C50.2679 10.6723 50.0322 10.9117 49.8696 11.1974C49.7071 11.4832 49.6235 11.8055 49.6269 12.1326C49.6235 12.4597 49.7071 12.7821 49.8696 13.0679C50.0322 13.3536 50.2679 13.593 50.5537 13.7622C50.8464 13.9349 51.1829 14.023 51.5245 14.0164Z" fill="#FF6666"/>
<path d="M62.3061 10.2558H56.4629V8.48549H62.3061V10.2558ZM59.9267 15.7868H57.7882V8.10193C57.78 7.55194 57.9038 7.00776 58.1496 6.5132C58.3892 6.04218 58.7667 5.65182 59.2339 5.39202C59.7878 5.09864 60.4119 4.95601 61.0411 4.97895C61.2883 4.97793 61.535 4.99997 61.7779 5.04477C62.0001 5.08377 62.2175 5.14539 62.4266 5.22861V7.16231C62.2509 7.05449 62.0572 6.97767 61.8543 6.93535C61.6519 6.88643 61.4442 6.86129 61.2357 6.86045C60.8898 6.84322 60.5495 6.95059 60.2788 7.16231C60.155 7.28185 60.0593 7.42646 59.9985 7.58602C59.9376 7.74558 59.9131 7.91623 59.9267 8.08604V15.7868Z" fill="#FF6666"/>
<path d="M68.9312 10.256H62.7891V8.48576H68.9312V10.256ZM67.3812 15.9981C66.7622 16.0198 66.1479 15.8854 65.5972 15.6078C65.1327 15.3601 64.7567 14.9792 64.5198 14.5161C64.2706 14.013 64.1467 13.4592 64.1584 12.9001V6.62695H66.2969V12.8366C66.2863 13.0088 66.3117 13.1814 66.3715 13.3437C66.4312 13.506 66.5241 13.6547 66.6444 13.7807C66.7674 13.8959 66.9129 13.9855 67.0722 14.044C67.2315 14.1025 67.4012 14.1288 67.5712 14.1212C67.8056 14.1181 68.0388 14.0884 68.2663 14.0327C68.4967 13.9822 68.7163 13.8923 68.915 13.7671V15.6396C68.6908 15.7602 68.4495 15.8474 68.1991 15.8983C67.931 15.9606 67.6567 15.9941 67.3812 15.9981Z" fill="#1A1F23"/>
<path d="M72.6056 15.7874H70.4694V11.5977C70.4585 11.0156 70.5813 10.4386 70.8285 9.90915C71.0666 9.41678 71.45 9.00568 71.9291 8.72896C72.4892 8.42152 73.1247 8.27078 73.7664 8.2932C74.0143 8.2933 74.2616 8.31532 74.5055 8.35901C74.7271 8.39841 74.9438 8.4608 75.1519 8.54512V10.5878C74.9698 10.481 74.7709 10.4043 74.5634 10.3608C74.3671 10.3126 74.1657 10.2874 73.9633 10.2859C73.7798 10.2759 73.5963 10.3043 73.4249 10.3693C73.2535 10.4343 73.0982 10.5343 72.9694 10.6627C72.7155 10.9447 72.5849 11.3131 72.6056 11.6885V15.7874Z" fill="#1A1F23"/>
<path d="M79.5037 15.98C78.8271 15.993 78.1615 15.8107 77.5899 15.4557C77.0386 15.1072 76.5897 14.6237 76.2878 14.0531C75.9673 13.4558 75.8041 12.7896 75.8128 12.1148C75.8057 11.437 75.9892 10.7703 76.3434 10.188C76.696 9.60841 77.1936 9.12645 77.7892 8.78761C78.4131 8.43376 79.1234 8.25255 79.8443 8.26333C80.5728 8.25072 81.292 8.42605 81.9295 8.77172C82.5247 9.09397 83.0232 9.56351 83.3752 10.1335C83.7326 10.7301 83.9146 11.4119 83.9012 12.1035V15.7757H81.8692V13.1475L82.518 12.9705C82.5253 13.507 82.3955 14.0368 82.1403 14.5115C81.9011 14.957 81.5412 15.3293 81.1 15.5873C80.6152 15.8602 80.0626 15.9961 79.5037 15.98ZM79.8489 14.0168C80.1961 14.0228 80.5381 13.9332 80.8359 13.758C81.2649 13.4965 81.5745 13.0832 81.7005 12.6039C81.8265 12.1246 81.7591 11.6162 81.5124 11.1843C81.3494 10.9049 81.1167 10.6706 80.8359 10.5034C80.5381 10.3283 80.1961 10.2387 79.8489 10.2447C79.5069 10.2394 79.1703 10.3291 78.8781 10.5034C78.5924 10.6727 78.3566 10.912 78.1941 11.1978C78.0315 11.4836 77.9479 11.8059 77.9513 12.133C77.9479 12.4601 78.0315 12.7825 78.1941 13.0682C78.3566 13.354 78.5924 13.5933 78.8781 13.7626C79.1708 13.9353 79.5073 14.0234 79.8489 14.0168Z" fill="#1A1F23"/>
<path d="M89.3521 15.9987C88.6457 16.0087 87.9491 15.8355 87.333 15.4967C86.717 15.1579 86.2034 14.6655 85.8443 14.0695C85.4895 13.4881 85.3051 12.8222 85.3114 12.1449C85.297 11.4425 85.4678 10.7483 85.8072 10.1295C86.1295 9.55572 86.6116 9.08346 87.1973 8.76771C87.8203 8.43611 88.5204 8.26874 89.2293 8.28202C89.7533 8.27763 90.2704 8.3992 90.7353 8.63607C91.1818 8.8578 91.5673 9.18166 91.859 9.58023C92.136 9.9477 92.2861 10.3921 92.2876 10.8489L91.2473 10.6719L91.2635 5.125H93.402V12.1403C93.4138 12.8342 93.2311 13.5179 92.8738 14.1172C92.5258 14.6903 92.0263 15.1608 91.428 15.4789C90.7935 15.8251 90.0783 16.0041 89.3521 15.9987ZM89.3521 14.0218C89.6994 14.0286 90.0416 13.9389 90.3391 13.7631C90.6225 13.5952 90.8567 13.3584 91.0191 13.0757C91.1815 12.7929 91.2665 12.4738 91.2658 12.1494C91.2685 11.8161 91.1831 11.4877 91.0179 11.1962C90.8567 10.9147 90.6225 10.6799 90.3391 10.5153C90.0395 10.3455 89.6982 10.2591 89.3521 10.2656C89.0164 10.259 88.6854 10.3427 88.3949 10.5075C88.1045 10.6724 87.8657 10.9122 87.7047 11.2007C87.5442 11.4887 87.462 11.8123 87.4661 12.1403C87.4638 12.4661 87.5501 12.7865 87.7163 13.0686C87.878 13.349 88.1111 13.5836 88.3929 13.7495C88.6808 13.9247 89.0131 14.0175 89.3521 14.0173V14.0218Z" fill="#1A1F23"/>
<path d="M98.8846 15.9795C98.1579 15.9905 97.4404 15.8202 96.7994 15.4848C96.1939 15.1679 95.6902 14.6925 95.3444 14.1117C95.0056 13.5044 94.825 12.8246 94.8185 12.1326C94.8121 11.4406 94.9799 10.7577 95.3073 10.1444C95.6336 9.54844 96.1224 9.05295 96.7192 8.71313C97.3161 8.37331 97.9975 8.20251 98.6877 8.21977C99.3961 8.19675 100.096 8.37318 100.706 8.72816C101.25 9.0589 101.691 9.53003 101.98 10.0899C102.277 10.6603 102.429 11.2926 102.423 11.9328V12.5524H96.519L96.8503 12.0372C96.8245 12.4181 96.9004 12.7991 97.0705 13.1425C97.2263 13.4574 97.4717 13.7214 97.7771 13.9029C98.1081 14.091 98.4859 14.1852 98.8684 14.1752C99.2519 14.1801 99.6297 14.0837 99.962 13.8961C100.284 13.7129 100.542 13.4404 100.706 13.113L102.348 13.9256C102.052 14.5558 101.573 15.0863 100.97 15.4507C100.339 15.8156 99.6166 15.9989 98.8846 15.9795ZM96.9639 11.3768H100.3C100.272 11.1316 100.181 10.8974 100.036 10.6959C99.8904 10.4952 99.6961 10.333 99.4708 10.2238C99.2164 10.1094 98.9398 10.0502 98.6599 10.0502C98.3799 10.0502 98.1033 10.1094 97.8489 10.2238C97.6204 10.3343 97.4237 10.4989 97.2767 10.7027C97.1288 10.9054 97.0226 11.1344 96.9639 11.3768Z" fill="#1A1F23"/>
<path d="M2.47373 4.8388C3.83778 4.8388 4.94356 3.75559 4.94356 2.4194C4.94356 1.0832 3.83778 0 2.47373 0C1.10968 0 0.00390625 1.0832 0.00390625 2.4194C0.00390625 3.75559 1.10968 4.8388 2.47373 4.8388Z" fill="#FF6666"/>
<path d="M2.47373 10.4179C3.83778 10.4179 4.94356 9.3347 4.94356 7.9985C4.94356 6.6623 3.83778 5.5791 2.47373 5.5791C1.10968 5.5791 0.00390625 6.6623 0.00390625 7.9985C0.00390625 9.3347 1.10968 10.4179 2.47373 10.4179Z" fill="#FF6666"/>
<path d="M8.1749 15.9941C9.53895 15.9941 10.6447 14.9109 10.6447 13.5747C10.6447 12.2385 9.53895 11.1553 8.1749 11.1553C6.81086 11.1553 5.70508 12.2385 5.70508 13.5747C5.70508 14.9109 6.81086 15.9941 8.1749 15.9941Z" fill="#FF6666"/>
<path d="M4.94429 13.6385C4.94429 12.7851 5.29003 11.9666 5.90559 11.3628C6.52116 10.7589 7.3562 10.4191 8.22735 10.4179H8.16943C8.65792 10.4179 9.13543 10.276 9.54159 10.0102C9.94775 9.74431 10.2643 9.36645 10.4513 8.92436C10.6382 8.48228 10.6871 7.99582 10.5918 7.5265C10.4965 7.05718 10.2613 6.62609 9.91586 6.28773C9.57045 5.94937 9.13037 5.71894 8.65127 5.62559C8.17217 5.53224 7.67557 5.58015 7.22427 5.76327C6.77297 5.94639 6.38723 6.25649 6.11584 6.65436C5.84446 7.05222 5.6996 7.51999 5.6996 7.9985V7.93722C5.6996 8.79137 5.35322 9.61053 4.73666 10.2145C4.1201 10.8185 3.28386 11.1578 2.41191 11.1578H2.46983C1.98124 11.1578 1.50364 11.2997 1.09743 11.5657C0.691214 11.8316 0.374651 12.2096 0.187784 12.6518C0.000916906 13.0941 -0.047859 13.5806 0.0476278 14.05C0.143115 14.5194 0.378573 14.9505 0.724217 15.2888C1.06986 15.627 1.51016 15.8573 1.98941 15.9504C2.46866 16.0435 2.96533 15.9952 3.4166 15.8118C3.86786 15.6283 4.25343 15.3178 4.52454 14.9197C4.79565 14.5215 4.94011 14.0535 4.93966 13.5749L4.94429 13.6385Z" fill="#FF6666"/>
<path d="M13.8741 15.9941C15.2382 15.9941 16.3439 14.9109 16.3439 13.5747C16.3439 12.2385 15.2382 11.1553 13.8741 11.1553C12.5101 11.1553 11.4043 12.2385 11.4043 13.5747C11.4043 14.9109 12.5101 15.9941 13.8741 15.9941Z" fill="#2FCFB0"/>
<path d="M13.9324 5.58323C13.0605 5.58323 12.2242 5.24392 11.6077 4.63994C10.9911 4.03597 10.6447 3.21681 10.6447 2.36266V2.4194C10.6447 1.94089 10.4999 1.47312 10.2285 1.07525C9.9571 0.677385 9.57137 0.367285 9.12007 0.184166C8.66877 0.00104792 8.17217 -0.0468637 7.69307 0.0464893C7.21397 0.139842 6.77389 0.370267 6.42847 0.708626C6.08306 1.04699 5.84783 1.47808 5.75254 1.9474C5.65724 2.41672 5.70615 2.90318 5.89308 3.34526C6.08002 3.78735 6.39658 4.16521 6.80274 4.43105C7.2089 4.6969 7.68642 4.8388 8.1749 4.8388H8.11235C8.9835 4.8388 9.81903 5.17748 10.4355 5.78047C11.0519 6.38347 11.3988 7.20146 11.4 8.05483V7.99809C11.4 8.4766 11.5449 8.94436 11.8163 9.34223C12.0877 9.7401 12.4734 10.0502 12.9247 10.2333C13.376 10.4164 13.8726 10.4643 14.3517 10.371C14.8308 10.2776 15.2709 10.0472 15.6163 9.70886C15.9617 9.3705 16.1969 8.9394 16.2922 8.47009C16.3875 8.00077 16.3386 7.51431 16.1517 7.07222C15.9648 6.63013 15.6482 6.25228 15.242 5.98643C14.8359 5.72058 14.3584 5.57869 13.8699 5.57869L13.9324 5.58323Z" fill="#2FCFB0"/>
<path d="M19.5668 0H13.8741C13.2191 1.91231e-08 12.5909 0.254899 12.1277 0.708624C11.6645 1.16235 11.4043 1.77773 11.4043 2.4194C11.4043 3.06106 11.6645 3.67644 12.1277 4.13017C12.5909 4.58389 13.2191 4.8388 13.8741 4.8388H19.5668C20.2218 4.8388 20.85 4.58389 21.3132 4.13017C21.7764 3.67644 22.0366 3.06106 22.0366 2.4194C22.0366 1.77773 21.7764 1.16235 21.3132 0.708624C20.85 0.254899 20.2218 2.70441e-08 19.5668 0Z" fill="#2FCFB0"/>
</svg>
