<?xml version="1.0" standalone="no"?>
<!DOCTYPE svg PUBLIC "-//W3C//DTD SVG 20010904//EN"
 "http://www.w3.org/TR/2001/REC-SVG-20010904/DTD/svg10.dtd">
<svg version="1.0" xmlns="http://www.w3.org/2000/svg"
 width="151.000000pt" height="151.000000pt" viewBox="0 0 151.000000 151.000000"
 preserveAspectRatio="xMidYMid meet">
<metadata>
Created by potrace 1.14, written by Peter Selinger 2001-2017
</metadata>
<g transform="translate(0.000000,151.000000) scale(0.100000,-0.100000)"
fill="#000000" stroke="none">
<path d="M130 1303 c-121 -43 -159 -197 -69 -280 106 -97 270 -37 284 104 11
113 -111 213 -215 176z"/>
<path d="M494 1291 c-101 -46 -126 -187 -46 -266 33 -33 58 -43 125 -51 122
-15 198 -92 213 -216 8 -65 24 -98 64 -131 73 -62 183 -45 244 37 30 39 30
143 0 183 -30 41 -82 73 -119 73 -56 0 -130 28 -167 64 -44 43 -67 91 -73 156
-7 79 -41 130 -104 156 -45 19 -88 17 -137 -5z"/>
<path d="M885 1293 c-67 -35 -97 -81 -97 -148 0 -69 39 -129 102 -157 40 -18
466 -18 512 0 138 52 140 250 5 307 -54 22 -479 21 -522 -2z"/>
<path d="M109 907 c-39 -18 -58 -37 -80 -78 -24 -48 -24 -92 0 -145 25 -56 71
-87 137 -92 181 -15 249 228 87 312 -37 18 -106 20 -144 3z"/>
<path d="M495 908 c-61 -33 -91 -82 -99 -163 -11 -116 -94 -196 -216 -208 -64
-7 -92 -20 -128 -61 -72 -82 -46 -208 54 -257 106 -51 227 19 240 140 15 138
88 215 217 228 60 6 92 21 125 56 100 106 23 278 -124 277 -27 0 -58 -6 -69
-12z"/>
<path d="M515 527 c-47 -19 -61 -29 -89 -71 -57 -85 -20 -200 76 -241 110 -45
229 31 230 149 2 114 -115 202 -217 163z"/>
<path d="M914 531 c-127 -32 -168 -187 -73 -282 99 -99 265 -36 277 106 10
116 -92 204 -204 176z"/>
</g>
</svg>
