<svg width="16" height="16" viewBox="0 0 16 16" fill="none" xmlns="http://www.w3.org/2000/svg">
<path d="M12.6667 7.33398H3.33333C2.59695 7.33398 2 7.93094 2 8.66732V13.334C2 14.0704 2.59695 14.6673 3.33333 14.6673H12.6667C13.403 14.6673 14 14.0704 14 13.334V8.66732C14 7.93094 13.403 7.33398 12.6667 7.33398Z" stroke="#FF7A2A" stroke-width="2" stroke-linecap="round" stroke-linejoin="round"/>
<path d="M4.66675 7.33398V4.66732C4.66675 3.78326 5.01794 2.93542 5.64306 2.3103C6.26818 1.68517 7.11603 1.33398 8.00008 1.33398C8.88414 1.33398 9.73198 1.68517 10.3571 2.3103C10.9822 2.93542 11.3334 3.78326 11.3334 4.66732V7.33398" stroke="#FF7A2A" stroke-width="2" stroke-linecap="round" stroke-linejoin="round"/>
</svg>
