<svg width="522" height="448" viewBox="0 0 522 448" fill="none" xmlns="http://www.w3.org/2000/svg">
  <path d="M170.285 248.467C169.438 247.758 168.177 247.869 167.467 248.715L155.903 262.509C155.194 263.356 155.305 264.617 156.151 265.327C156.998 266.036 158.259 265.925 158.969 265.079L169.248 252.818L181.509 263.097C182.356 263.806 183.617 263.695 184.327 262.849C185.036 262.002 184.925 260.741 184.079 260.031L170.285 248.467ZM328.139 403.495C329.241 403.418 330.072 402.463 329.995 401.361C329.918 400.259 328.963 399.428 327.861 399.505L328.139 403.495ZM167.008 250.175C169.935 283.465 178.23 323.998 201.844 355.134C225.569 386.416 264.547 407.937 328.139 403.495L327.861 399.505C265.453 403.863 227.847 382.801 205.031 352.716C182.103 322.485 173.898 282.868 170.992 249.825L167.008 250.175Z" fill="#09A78E"/>
  <path d="M456.333 446.397C454.236 447.281 451.92 447.508 449.692 447.048L326.787 422.174C323.904 421.603 321.363 419.919 319.715 417.486C319.002 416.431 318.506 415.245 318.254 413.996C318.003 412.748 318.002 411.462 318.25 410.213L377.26 182.19C378.353 176.83 383.978 173.377 389.771 174.562L512.673 199.438C515.555 200.007 518.096 201.69 519.744 204.122C520.455 205.175 520.95 206.359 521.2 207.605C521.451 208.851 521.451 210.134 521.202 211.38L462.197 439.404C461.861 440.959 461.152 442.408 460.13 443.626C459.109 444.845 457.805 445.796 456.333 446.397ZM384.005 177.212C382.847 177.678 381.821 178.42 381.016 179.374C380.211 180.328 379.651 181.463 379.385 182.683L320.379 410.704C320.193 411.667 320.2 412.657 320.4 413.617C320.599 414.577 320.987 415.489 321.541 416.298C322.868 418.248 324.911 419.596 327.226 420.049L450.128 444.925C454.763 445.861 459.232 443.176 460.112 438.931L519.12 210.905C519.303 209.945 519.295 208.959 519.096 208.003C518.898 207.046 518.512 206.138 517.962 205.331C516.636 203.38 514.592 202.031 512.277 201.579L389.353 176.695C387.559 176.323 385.695 176.503 384.005 177.212Z" fill="black"/>
  <path d="M446.337 426.259L341.071 404.95C336.592 404.044 333.646 399.954 334.491 395.813L385.007 200.564C385.851 196.42 390.168 193.799 394.647 194.705L499.912 216.011C504.39 216.917 507.338 221.009 506.493 225.15L455.977 420.4C455.144 424.536 450.816 427.165 446.337 426.259Z" fill="#CAFFF9"/>
  <path d="M463.225 317.745L379.66 300.831C376.103 300.113 373.765 296.864 374.428 293.581L392.237 225.546C392.908 222.26 396.335 220.179 399.889 220.898L483.457 237.811C487.011 238.531 489.349 241.779 488.689 245.061L470.881 313.106C470.209 316.382 466.783 318.466 463.225 317.745Z" fill="#0B0E0F"/>
  <path d="M417.11 234.453L399.729 230.928C398.33 230.645 397.41 229.382 397.668 228.105L397.817 227.376C398.08 226.1 399.435 225.287 400.823 225.578L418.2 229.093C419.599 229.376 420.52 230.642 420.259 231.921L420.109 232.647C419.853 233.93 418.508 234.735 417.11 234.453Z" fill="#99FFC8"/>
  <path d="M473.662 260.312L395.934 246.014C394.538 245.73 393.613 244.466 393.875 243.187L394.025 242.461C394.283 241.183 395.643 240.372 397.026 240.661L474.752 254.96C476.15 255.243 477.072 256.509 476.813 257.786L476.664 258.512C476.405 259.79 475.058 260.596 473.662 260.312Z" fill="#99FFC8"/>
  <path d="M446.726 240.447L429.347 236.928C427.948 236.646 427.027 235.38 427.287 234.106L427.435 233.377C427.698 232.101 429.053 231.288 430.44 231.575L447.818 235.094C449.214 235.378 450.139 236.642 449.876 237.918L449.727 238.647C449.467 239.922 448.124 240.73 446.726 240.447Z" fill="#99FFC8"/>
  <path d="M476.34 246.439L458.963 242.923C457.564 242.641 456.642 241.375 456.901 240.098L457.051 239.372C457.309 238.094 458.669 237.283 460.052 237.572L477.431 241.09C478.83 241.373 479.75 242.636 479.491 243.913L479.343 244.642C479.074 245.921 477.737 246.726 476.34 246.439Z" fill="#99FFC8"/>
  <path d="M426.663 266.899L393.141 260.747C391.742 260.465 390.821 259.199 391.084 257.923L391.232 257.194C391.492 255.919 392.85 255.105 394.234 255.394L427.755 261.546C429.154 261.829 430.076 263.095 429.814 264.373L429.667 265.098C429.406 266.377 428.061 267.182 426.663 266.899Z" fill="#99FFC8"/>
  <path d="M460.198 355.397L365.829 336.941C363.959 336.562 362.158 337.657 361.799 339.372L352.438 375.132C352.097 376.856 353.312 378.567 355.181 378.946L449.554 397.401C451.423 397.781 453.224 396.685 453.584 394.971L462.944 359.21C463.299 357.484 462.065 355.778 460.198 355.397Z" fill="#99FFC8"/>
  <path d="M261.886 80.1129C260.969 80.7281 260.724 81.9706 261.339 82.8879C261.954 83.8052 263.197 84.0501 264.114 83.4348L261.886 80.1129ZM380.5 81.7739L379.55 83.5338L380.5 81.7739ZM445.873 173.926C446.785 174.549 448.029 174.314 448.652 173.401L458.799 158.534C459.422 157.622 459.187 156.378 458.275 155.755C457.363 155.132 456.118 155.367 455.495 156.279L446.476 169.495L433.26 160.475C432.348 159.852 431.104 160.087 430.481 160.999C429.858 161.911 430.093 163.156 431.005 163.778L445.873 173.926ZM264.114 83.4348C270.58 79.0981 287.663 72.7197 309.164 70.6632C330.597 68.6131 356.128 70.8898 379.55 83.5338L381.45 80.014C357.134 66.887 330.749 64.5804 308.783 66.6814C286.884 68.7759 269.087 75.2829 261.886 80.1129L264.114 83.4348ZM379.55 83.5338C408.223 99.0125 423.727 116.947 432.492 133.095C441.277 149.277 443.358 163.759 445.035 172.645L448.965 171.903C447.308 163.122 445.14 148.01 436.008 131.186C426.856 114.328 410.777 95.8461 381.45 80.014L379.55 83.5338Z" fill="#09A78E"/>
  <path d="M230.472 39.0247L122.219 97.7848C117.514 100.339 115.381 105.906 117.447 110.218L146.321 170.442C148.388 174.754 153.879 176.185 158.572 173.631L266.829 114.873C271.527 112.322 273.665 106.757 271.596 102.438L242.732 42.2184C240.661 37.9039 235.16 36.4684 230.472 39.0247Z" fill="#429995"/>
  <path d="M272.878 111.116C271.721 113.374 269.908 115.23 267.677 116.44L159.422 175.192C158.066 175.953 156.57 176.432 155.024 176.598C153.478 176.765 151.914 176.616 150.427 176.162C149.185 175.772 148.037 175.131 147.054 174.279C146.071 173.427 145.273 172.381 144.711 171.208L115.843 110.986C113.374 105.841 115.855 99.2146 121.369 96.2225L229.621 37.4624C230.978 36.7031 232.474 36.2259 234.02 36.0594C235.565 35.8928 237.129 36.0403 238.616 36.4931C239.857 36.8857 241.005 37.5279 241.989 38.3803C242.972 39.2326 243.771 40.2771 244.337 41.4496L273.2 101.669C273.877 103.162 274.2 104.791 274.144 106.43C274.088 108.069 273.655 109.672 272.878 111.116ZM119.306 103.177C118.784 104.133 118.49 105.196 118.446 106.283C118.402 107.371 118.609 108.454 119.052 109.449L147.921 169.671C148.277 170.407 148.781 171.063 149.401 171.597C150.022 172.131 150.745 172.532 151.526 172.776C152.554 173.081 153.632 173.175 154.697 173.052C155.762 172.93 156.792 172.594 157.724 172.064L265.964 113.303C269.839 111.195 271.634 106.668 269.974 103.203L241.11 42.984C240.754 42.247 240.251 41.5908 239.631 41.0558C239.011 40.5209 238.289 40.1186 237.508 39.8737C236.479 39.5683 235.4 39.4737 234.334 39.5958C233.268 39.7178 232.238 40.0539 231.305 40.5839L123.053 99.344C121.446 100.215 120.14 101.551 119.306 103.177Z" fill="#38D9C0"/>
  <path d="M255.682 69.2458L130.405 137.243L123.484 122.811L248.768 54.8113L255.682 69.2458Z" fill="black"/>
  <path d="M250.226 92.1662L226.306 105.151C224.377 106.201 222.119 105.611 221.273 103.839L219.942 101.067C219.09 99.2932 219.969 97.0022 221.898 95.9527L245.816 82.9725C247.752 81.9207 250.005 82.5083 250.856 84.2819L252.185 87.0593C253.036 88.8329 252.16 91.1191 250.226 92.1662Z" fill="#0B0E0F"/>
  <path d="M224.971 236.578H76.7356C71.3558 236.578 66.1964 234.441 62.3923 230.637C58.5883 226.832 56.4512 221.673 56.4512 216.293V116.311C56.4512 110.931 58.5882 105.771 62.3921 101.967C66.1961 98.162 71.3555 96.0242 76.7356 96.0234H224.971C230.351 96.0242 235.511 98.162 239.315 101.967C243.118 105.771 245.256 110.931 245.256 116.311V216.293C245.256 221.673 243.118 226.832 239.314 230.637C235.51 234.441 230.351 236.578 224.971 236.578Z" fill="#FF6666"/>
  <path d="M225.688 232.841H217.572C217.312 232.827 217.068 232.714 216.889 232.525C216.71 232.336 216.611 232.086 216.611 231.826C216.611 231.566 216.71 231.316 216.889 231.127C217.068 230.938 217.312 230.825 217.572 230.811H225.688C228.119 230.811 230.508 230.178 232.619 228.973C232.735 228.907 232.862 228.864 232.994 228.847C233.126 228.83 233.261 228.84 233.389 228.875C233.518 228.91 233.638 228.97 233.743 229.051C233.849 229.133 233.937 229.234 234.003 229.35C234.069 229.465 234.112 229.593 234.129 229.725C234.146 229.857 234.137 229.991 234.102 230.12C234.067 230.248 234.007 230.369 233.925 230.474C233.844 230.58 233.742 230.668 233.627 230.734C231.208 232.114 228.472 232.84 225.688 232.841ZM209.456 232.841H201.342C201.204 232.849 201.066 232.828 200.937 232.781C200.807 232.733 200.688 232.659 200.588 232.564C200.487 232.469 200.407 232.355 200.353 232.228C200.298 232.101 200.27 231.964 200.27 231.826C200.27 231.688 200.298 231.551 200.353 231.424C200.407 231.297 200.487 231.182 200.588 231.087C200.688 230.992 200.807 230.919 200.937 230.871C201.066 230.824 201.204 230.803 201.342 230.811H209.456C209.715 230.825 209.96 230.938 210.138 231.127C210.317 231.316 210.417 231.566 210.417 231.826C210.417 232.086 210.317 232.336 210.138 232.525C209.96 232.714 209.715 232.827 209.456 232.841ZM193.223 232.841H185.11C184.85 232.827 184.606 232.714 184.427 232.525C184.249 232.336 184.149 232.086 184.149 231.826C184.149 231.566 184.249 231.316 184.427 231.127C184.606 230.938 184.85 230.825 185.11 230.811H193.223C193.483 230.825 193.727 230.938 193.906 231.127C194.085 231.316 194.184 231.566 194.184 231.826C194.184 232.086 194.085 232.336 193.906 232.525C193.727 232.714 193.483 232.827 193.223 232.841ZM176.991 232.841H168.878C168.618 232.827 168.374 232.714 168.195 232.525C168.016 232.336 167.917 232.086 167.917 231.826C167.917 231.566 168.016 231.316 168.195 231.127C168.374 230.938 168.618 230.825 168.878 230.811H176.991C177.25 230.825 177.495 230.938 177.673 231.127C177.852 231.316 177.952 231.566 177.952 231.826C177.952 232.086 177.852 232.336 177.673 232.525C177.495 232.714 177.25 232.827 176.991 232.841ZM160.758 232.841H152.657C152.398 232.827 152.154 232.714 151.975 232.525C151.796 232.336 151.696 232.086 151.696 231.826C151.696 231.566 151.796 231.316 151.975 231.127C152.154 230.938 152.398 230.825 152.657 230.811H160.771C160.909 230.803 161.047 230.824 161.177 230.871C161.306 230.919 161.425 230.992 161.525 231.087C161.626 231.182 161.706 231.297 161.76 231.424C161.815 231.551 161.843 231.688 161.843 231.826C161.843 231.964 161.815 232.101 161.76 232.228C161.706 232.355 161.626 232.469 161.525 232.564C161.425 232.659 161.306 232.733 161.177 232.781C161.047 232.828 160.909 232.849 160.771 232.841H160.758ZM144.526 232.841H136.41C136.15 232.827 135.906 232.714 135.727 232.525C135.548 232.336 135.449 232.086 135.449 231.826C135.449 231.566 135.548 231.316 135.727 231.127C135.906 230.938 136.15 230.825 136.41 230.811H144.526C144.786 230.825 145.03 230.938 145.209 231.127C145.387 231.316 145.487 231.566 145.487 231.826C145.487 232.086 145.387 232.336 145.209 232.525C145.03 232.714 144.786 232.827 144.526 232.841ZM128.294 232.841H120.177C119.918 232.827 119.673 232.714 119.495 232.525C119.316 232.336 119.216 232.086 119.216 231.826C119.216 231.566 119.316 231.316 119.495 231.127C119.673 230.938 119.918 230.825 120.177 230.811H128.294C128.553 230.825 128.797 230.938 128.976 231.127C129.155 231.316 129.255 231.566 129.255 231.826C129.255 232.086 129.155 232.336 128.976 232.525C128.797 232.714 128.553 232.827 128.294 232.841ZM112.061 232.841H103.945C103.685 232.827 103.441 232.714 103.262 232.525C103.084 232.336 102.984 232.086 102.984 231.826C102.984 231.566 103.084 231.316 103.262 231.127C103.441 230.938 103.685 230.825 103.945 230.811H112.061C112.321 230.825 112.565 230.938 112.744 231.127C112.923 231.316 113.022 231.566 113.022 231.826C113.022 232.086 112.923 232.336 112.744 232.525C112.565 232.714 112.321 232.827 112.061 232.841ZM95.8287 232.841H87.7125C87.4529 232.827 87.2086 232.714 87.0299 232.525C86.8511 232.336 86.7515 232.086 86.7515 231.826C86.7515 231.566 86.8511 231.316 87.0299 231.127C87.2086 230.938 87.4529 230.825 87.7125 230.811H95.8287C96.0884 230.825 96.3327 230.938 96.5114 231.127C96.6902 231.316 96.7898 231.566 96.7898 231.826C96.7898 232.086 96.6902 232.336 96.5114 232.525C96.3327 232.714 96.0884 232.827 95.8287 232.841ZM79.5963 232.841H77.6178C75.4263 232.845 73.2576 232.397 71.2474 231.524C71.0004 231.417 70.8062 231.216 70.7074 230.966C70.6086 230.715 70.6134 230.436 70.7206 230.189C70.8278 229.942 71.0287 229.748 71.2791 229.649C71.5296 229.55 71.809 229.555 72.0559 229.662C73.811 230.424 75.7045 230.815 77.6178 230.811H79.5963C79.856 230.825 80.1003 230.938 80.279 231.127C80.4578 231.316 80.5574 231.566 80.5574 231.826C80.5574 232.086 80.4578 232.336 80.279 232.525C80.1003 232.714 79.856 232.827 79.5963 232.841ZM65.419 226.569C65.2579 226.569 65.0991 226.531 64.9558 226.457C64.8125 226.384 64.6889 226.277 64.5952 226.146C62.9013 223.785 61.8856 221.006 61.658 218.109C61.6369 217.841 61.7231 217.576 61.8977 217.371C62.0723 217.167 62.321 217.04 62.5891 217.019C62.8571 216.998 63.1226 217.084 63.3271 217.259C63.5315 217.433 63.6583 217.682 63.6794 217.95C63.8796 220.478 64.766 222.903 66.2429 224.964C66.3516 225.115 66.4165 225.294 66.4303 225.48C66.4441 225.666 66.4063 225.852 66.3211 226.018C66.236 226.184 66.1067 226.323 65.9475 226.42C65.7884 226.517 65.6055 226.569 65.419 226.569ZM238.738 225.181C238.564 225.182 238.393 225.138 238.242 225.053C238.126 224.987 238.024 224.9 237.942 224.795C237.859 224.69 237.799 224.57 237.763 224.442C237.727 224.314 237.717 224.18 237.733 224.047C237.749 223.915 237.791 223.787 237.856 223.671C239.027 221.581 239.642 219.225 239.642 216.829V216.385C239.642 216.116 239.749 215.858 239.939 215.668C240.129 215.478 240.387 215.371 240.655 215.371C240.924 215.371 241.182 215.478 241.372 215.668C241.562 215.858 241.669 216.116 241.669 216.385V216.829C241.67 219.573 240.965 222.271 239.623 224.664C239.538 224.816 239.414 224.944 239.264 225.035C239.114 225.126 238.944 225.176 238.769 225.181H238.738ZM62.6319 210.93C62.3631 210.93 62.1052 210.824 61.9151 210.634C61.725 210.443 61.6182 210.186 61.6182 209.917V201.804C61.6182 201.535 61.725 201.277 61.9151 201.087C62.1052 200.897 62.3631 200.79 62.6319 200.79C62.9008 200.79 63.1586 200.897 63.3488 201.087C63.5389 201.277 63.6457 201.535 63.6457 201.804V209.917C63.6457 210.182 63.5415 210.438 63.3553 210.627C63.1691 210.817 62.916 210.926 62.6503 210.93H62.6319ZM240.668 209.286C240.399 209.285 240.141 209.177 239.951 208.987C239.761 208.796 239.654 208.538 239.654 208.269V200.156C239.654 199.887 239.761 199.629 239.951 199.439C240.141 199.249 240.399 199.142 240.668 199.142C240.937 199.142 241.194 199.249 241.385 199.439C241.575 199.629 241.682 199.887 241.682 200.156V208.269C241.681 208.534 241.576 208.789 241.39 208.979C241.204 209.168 240.952 209.277 240.686 209.283L240.668 209.286ZM62.6319 194.701C62.3631 194.701 62.1052 194.594 61.9151 194.404C61.725 194.214 61.6182 193.956 61.6182 193.687V185.574C61.6182 185.305 61.725 185.048 61.9151 184.857C62.1052 184.667 62.3631 184.56 62.6319 184.56C62.9008 184.56 63.1586 184.667 63.3488 184.857C63.5389 185.048 63.6457 185.305 63.6457 185.574V193.687C63.6457 193.953 63.5415 194.208 63.3553 194.398C63.1691 194.587 62.916 194.696 62.6503 194.701H62.6319ZM240.668 193.056C240.399 193.056 240.141 192.95 239.951 192.76C239.761 192.569 239.654 192.312 239.654 192.043V183.927C239.654 183.658 239.761 183.4 239.951 183.21C240.141 183.02 240.399 182.913 240.668 182.913C240.937 182.913 241.194 183.02 241.385 183.21C241.575 183.4 241.682 183.658 241.682 183.927V192.043C241.68 192.307 241.575 192.561 241.389 192.749C241.203 192.937 240.951 193.046 240.686 193.05L240.668 193.056ZM62.6319 178.475C62.3628 178.474 62.1049 178.367 61.9149 178.176C61.7249 177.985 61.6182 177.727 61.6182 177.458V169.345C61.6182 169.076 61.725 168.818 61.9151 168.628C62.1052 168.438 62.3631 168.331 62.6319 168.331C62.9008 168.331 63.1586 168.438 63.3488 168.628C63.5389 168.818 63.6457 169.076 63.6457 169.345V177.458C63.6457 177.724 63.5416 177.979 63.3555 178.17C63.1694 178.36 62.9162 178.469 62.6503 178.475H62.6319ZM240.668 176.827C240.399 176.827 240.141 176.72 239.951 176.53C239.761 176.34 239.654 176.082 239.654 175.813V167.697C239.654 167.428 239.761 167.17 239.951 166.98C240.141 166.79 240.399 166.683 240.668 166.683C240.937 166.683 241.194 166.79 241.385 166.98C241.575 167.17 241.682 167.428 241.682 167.697V175.813C241.679 176.077 241.574 176.33 241.388 176.518C241.202 176.705 240.95 176.813 240.686 176.818L240.668 176.827ZM62.6319 162.246C62.3631 162.246 62.1052 162.139 61.9151 161.949C61.725 161.758 61.6182 161.501 61.6182 161.232V153.116C61.6182 152.847 61.725 152.589 61.9151 152.399C62.1052 152.209 62.3631 152.102 62.6319 152.102C62.9008 152.102 63.1586 152.209 63.3488 152.399C63.5389 152.589 63.6457 152.847 63.6457 153.116V161.232C63.6457 161.497 63.5415 161.753 63.3553 161.942C63.1691 162.132 62.916 162.241 62.6503 162.246H62.6319ZM240.668 160.598C240.399 160.598 240.141 160.491 239.951 160.301C239.761 160.111 239.654 159.853 239.654 159.584V151.468C239.654 151.199 239.761 150.941 239.951 150.751C240.141 150.561 240.399 150.454 240.668 150.454C240.937 150.454 241.194 150.561 241.385 150.751C241.575 150.941 241.682 151.199 241.682 151.468V159.584C241.678 159.848 241.573 160.1 241.387 160.287C241.201 160.474 240.95 160.581 240.686 160.586L240.668 160.598ZM62.6319 146.016C62.3631 146.016 62.1052 145.909 61.9151 145.719C61.725 145.529 61.6182 145.271 61.6182 145.002V136.886C61.6182 136.617 61.725 136.36 61.9151 136.169C62.1052 135.979 62.3631 135.872 62.6319 135.872C62.9008 135.872 63.1586 135.979 63.3488 136.169C63.5389 136.36 63.6457 136.617 63.6457 136.886V145.002C63.6457 145.268 63.5415 145.523 63.3553 145.713C63.1691 145.902 62.916 146.011 62.6503 146.016H62.6319ZM240.668 144.368C240.399 144.368 240.141 144.262 239.951 144.072C239.761 143.881 239.654 143.624 239.654 143.355V135.242C239.654 134.973 239.761 134.715 239.951 134.525C240.141 134.335 240.399 134.228 240.668 134.228C240.937 134.228 241.194 134.335 241.385 134.525C241.575 134.715 241.682 134.973 241.682 135.242V143.355C241.682 143.62 241.577 143.875 241.391 144.065C241.205 144.255 240.952 144.364 240.686 144.368H240.668ZM62.6319 129.787C62.3631 129.787 62.1052 129.68 61.9151 129.49C61.725 129.3 61.6182 129.042 61.6182 128.773V120.657C61.6182 120.388 61.725 120.13 61.9151 119.94C62.1052 119.75 62.3631 119.643 62.6319 119.643C62.9008 119.643 63.1586 119.75 63.3488 119.94C63.5389 120.13 63.6457 120.388 63.6457 120.657V128.773C63.6457 129.039 63.5415 129.294 63.3553 129.484C63.1691 129.673 62.916 129.782 62.6503 129.787H62.6319ZM240.668 128.139C240.399 128.139 240.141 128.032 239.951 127.842C239.761 127.652 239.654 127.394 239.654 127.125V119.012C239.654 118.743 239.761 118.485 239.951 118.295C240.141 118.105 240.399 117.998 240.668 117.998C240.937 117.998 241.194 118.105 241.385 118.295C241.575 118.485 241.682 118.743 241.682 119.012V127.125C241.682 127.391 241.577 127.646 241.391 127.836C241.205 128.025 240.952 128.134 240.686 128.139H240.668ZM63.0301 113.588C62.9529 113.588 62.876 113.579 62.8004 113.564C62.6699 113.533 62.5467 113.478 62.4378 113.4C62.329 113.322 62.2366 113.223 62.166 113.109C62.0954 112.995 62.0481 112.868 62.0266 112.736C62.0051 112.604 62.0099 112.469 62.0408 112.339C62.7079 109.513 64.132 106.922 66.1602 104.844C66.3485 104.656 66.6032 104.549 66.8695 104.547C67.1357 104.545 67.392 104.648 67.5831 104.833C67.7741 105.019 67.8846 105.272 67.8905 105.538C67.8965 105.804 67.7975 106.062 67.615 106.256C65.8467 108.075 64.6069 110.34 64.0285 112.81C63.9755 113.032 63.8494 113.229 63.6704 113.37C63.4915 113.511 63.2702 113.588 63.0423 113.588H63.0301ZM239.819 112.011C239.61 112.011 239.405 111.946 239.234 111.824C239.063 111.703 238.933 111.532 238.864 111.334C238.017 108.941 236.535 106.823 234.576 105.209C234.368 105.037 234.238 104.79 234.212 104.522C234.186 104.254 234.268 103.987 234.44 103.78C234.611 103.572 234.858 103.441 235.126 103.416C235.394 103.39 235.661 103.472 235.868 103.643C238.12 105.492 239.826 107.919 240.802 110.663C240.892 110.916 240.878 111.195 240.763 111.437C240.648 111.68 240.442 111.867 240.19 111.959C240.074 111.996 239.953 112.013 239.832 112.011H239.819ZM73.7894 102.516C73.5443 102.514 73.3084 102.423 73.125 102.26C72.9416 102.098 72.8232 101.874 72.7915 101.631C72.7598 101.388 72.817 101.142 72.9525 100.937C73.0881 100.733 73.2928 100.585 73.5291 100.52C74.8685 100.167 76.248 99.9886 77.6331 99.9897H81.8597C82.1286 99.9897 82.3864 100.096 82.5765 100.287C82.7666 100.477 82.8734 100.735 82.8734 101.003C82.8734 101.272 82.7666 101.53 82.5765 101.72C82.3864 101.91 82.1286 102.017 81.8597 102.017H77.6331C76.4235 102.016 75.219 102.173 74.0498 102.483C73.9683 102.5 73.885 102.508 73.8017 102.507L73.7894 102.516ZM227.939 102.173C227.889 102.178 227.839 102.178 227.789 102.173C227.098 102.072 226.401 102.021 225.703 102.02H219.832C219.563 102.02 219.305 101.913 219.115 101.723C218.925 101.533 218.818 101.275 218.818 101.006C218.818 100.738 218.925 100.48 219.115 100.29C219.305 100.1 219.563 99.9927 219.832 99.9927H225.703C226.502 99.9924 227.299 100.051 228.089 100.167C228.345 100.202 228.578 100.333 228.741 100.533C228.904 100.734 228.984 100.989 228.965 101.247C228.946 101.505 228.829 101.745 228.638 101.92C228.447 102.094 228.197 102.189 227.939 102.186V102.173ZM146.777 102.008H138.661C138.392 102.008 138.134 101.901 137.944 101.711C137.754 101.521 137.647 101.263 137.647 100.994C137.647 100.725 137.754 100.468 137.944 100.277C138.134 100.087 138.392 99.9805 138.661 99.9805H146.777C147.046 99.9805 147.304 100.087 147.494 100.277C147.684 100.468 147.791 100.725 147.791 100.994C147.791 101.263 147.684 101.521 147.494 101.711C147.304 101.901 147.046 102.008 146.777 102.008ZM130.545 102.008H122.428C122.16 102.008 121.902 101.901 121.712 101.711C121.521 101.521 121.415 101.263 121.415 100.994C121.415 100.725 121.521 100.468 121.712 100.277C121.902 100.087 122.16 99.9805 122.428 99.9805H130.545C130.814 99.9805 131.071 100.087 131.261 100.277C131.452 100.468 131.558 100.725 131.558 100.994C131.558 101.263 131.452 101.521 131.261 101.711C131.071 101.901 130.814 102.008 130.545 102.008ZM114.312 102.008H106.196C105.927 102.008 105.669 101.901 105.479 101.711C105.289 101.521 105.182 101.263 105.182 100.994C105.182 100.725 105.289 100.468 105.479 100.277C105.669 100.087 105.927 99.9805 106.196 99.9805H114.312C114.581 99.9805 114.839 100.087 115.029 100.277C115.219 100.468 115.326 100.725 115.326 100.994C115.326 101.263 115.219 101.521 115.029 101.711C114.839 101.901 114.581 102.008 114.312 102.008ZM98.0798 102.008H89.9636C89.6948 102.008 89.4369 101.901 89.2468 101.711C89.0567 101.521 88.9499 101.263 88.9499 100.994C88.9499 100.725 89.0567 100.468 89.2468 100.277C89.4369 100.087 89.6948 99.9805 89.9636 99.9805H98.0798C98.3487 99.9805 98.6066 100.087 98.7967 100.277C98.9868 100.468 99.0936 100.725 99.0936 100.994C99.0936 101.263 98.9868 101.521 98.7967 101.711C98.6066 101.901 98.3487 102.008 98.0798 102.008ZM211.682 102.008H203.59C203.322 102.008 203.064 101.901 202.874 101.711C202.683 101.521 202.577 101.263 202.577 100.994C202.577 100.725 202.683 100.468 202.874 100.277C203.064 100.087 203.322 99.9805 203.59 99.9805H211.707C211.976 99.9805 212.233 100.087 212.424 100.277C212.614 100.468 212.72 100.725 212.72 100.994C212.72 101.263 212.614 101.521 212.424 101.711C212.233 101.901 211.976 102.008 211.707 102.008H211.682ZM195.45 102.008H187.337C187.068 102.008 186.81 101.901 186.62 101.711C186.43 101.521 186.323 101.263 186.323 100.994C186.323 100.725 186.43 100.468 186.62 100.277C186.81 100.087 187.068 99.9805 187.337 99.9805H195.474C195.743 99.9805 196.001 100.087 196.191 100.277C196.381 100.468 196.488 100.725 196.488 100.994C196.488 101.263 196.381 101.521 196.191 101.711C196.001 101.901 195.743 102.008 195.474 102.008H195.45ZM179.217 102.008H171.104C170.835 102.008 170.577 101.901 170.387 101.711C170.197 101.521 170.09 101.263 170.09 100.994C170.09 100.725 170.197 100.468 170.387 100.277C170.577 100.087 170.835 99.9805 171.104 99.9805H179.242C179.511 99.9805 179.769 100.087 179.959 100.277C180.149 100.468 180.256 100.725 180.256 100.994C180.256 101.263 180.149 101.521 179.959 101.711C179.769 101.901 179.511 102.008 179.242 102.008H179.217ZM162.985 102.008H154.872C154.603 102.008 154.345 101.901 154.155 101.711C153.965 101.521 153.858 101.263 153.858 100.994C153.858 100.725 153.965 100.468 154.155 100.277C154.345 100.087 154.603 99.9805 154.872 99.9805H163.009C163.278 99.9805 163.536 100.087 163.726 100.277C163.916 100.468 164.023 100.725 164.023 100.994C164.023 101.263 163.916 101.521 163.726 101.711C163.536 101.901 163.278 102.008 163.009 102.008H162.985Z" fill="#FF9999"/>
  <path d="M240.101 152.721H215.462C209.005 152.721 203.771 157.955 203.771 164.411V168.19C203.771 174.647 209.005 179.881 215.462 179.881H240.101C246.558 179.881 251.792 174.647 251.792 168.19V164.411C251.792 157.955 246.558 152.721 240.101 152.721Z" fill="#FFCACA"/>
  <path d="M214.224 171.734C217.112 171.734 219.452 169.301 219.452 166.3C219.452 163.3 217.112 160.867 214.224 160.867C211.337 160.867 208.996 163.3 208.996 166.3C208.996 169.301 211.337 171.734 214.224 171.734Z" fill="black"/>
  <path d="M152.33 191.439C152.14 191.438 151.955 191.384 151.794 191.283C151.634 191.182 151.504 191.038 151.421 190.868C151.338 190.697 151.304 190.507 151.324 190.318C151.343 190.13 151.415 189.95 151.531 189.8L164.461 173.142C164.63 172.946 164.867 172.822 165.124 172.795C165.381 172.768 165.638 172.84 165.844 172.996C166.05 173.152 166.188 173.381 166.23 173.636C166.273 173.891 166.216 174.152 166.072 174.367L153.139 191.034C153.044 191.16 152.922 191.262 152.782 191.332C152.642 191.402 152.487 191.439 152.33 191.439Z" fill="#FF9999"/>
  <path d="M167.604 171.745C167.382 171.744 167.166 171.669 166.991 171.531C166.886 171.45 166.798 171.348 166.731 171.233C166.665 171.117 166.623 170.99 166.606 170.858C166.589 170.726 166.598 170.592 166.634 170.463C166.669 170.335 166.729 170.215 166.811 170.11L182.305 150.171C182.47 149.959 182.712 149.821 182.979 149.787C183.246 149.754 183.515 149.827 183.728 149.992C183.94 150.157 184.078 150.4 184.112 150.667C184.145 150.933 184.072 151.203 183.907 151.415L168.428 171.362C168.33 171.486 168.204 171.585 168.061 171.652C167.918 171.718 167.762 171.75 167.604 171.745Z" fill="#FF9999"/>
  <path d="M101.042 189.739C100.82 189.738 100.604 189.664 100.429 189.528C100.324 189.446 100.235 189.345 100.169 189.229C100.103 189.113 100.06 188.985 100.043 188.853C100.026 188.721 100.036 188.587 100.071 188.458C100.106 188.329 100.167 188.209 100.248 188.104L109.296 176.447C109.461 176.234 109.703 176.096 109.97 176.063C110.237 176.029 110.506 176.103 110.718 176.268C110.931 176.433 111.069 176.675 111.103 176.942C111.136 177.209 111.062 177.478 110.897 177.69L101.85 189.347C101.755 189.47 101.632 189.57 101.492 189.638C101.352 189.706 101.198 189.74 101.042 189.739Z" fill="#FF9999"/>
  <path d="M111.862 175.798C111.64 175.797 111.425 175.723 111.249 175.586C111.144 175.505 111.055 175.403 110.989 175.288C110.923 175.172 110.88 175.044 110.864 174.912C110.847 174.78 110.856 174.645 110.891 174.517C110.927 174.388 110.987 174.268 111.069 174.162L121.663 160.487C121.828 160.275 122.071 160.137 122.338 160.104C122.605 160.07 122.874 160.144 123.087 160.31C123.299 160.475 123.437 160.718 123.471 160.985C123.504 161.252 123.43 161.521 123.264 161.734L112.652 175.406C112.559 175.527 112.439 175.625 112.302 175.693C112.165 175.76 112.015 175.796 111.862 175.798Z" fill="#FF9999"/>
  <path d="M143.861 223.496C143.671 223.496 143.485 223.443 143.324 223.343C143.163 223.243 143.033 223.099 142.949 222.929C142.866 222.758 142.832 222.568 142.851 222.379C142.87 222.19 142.942 222.01 143.059 221.86L159.334 200.896C159.499 200.684 159.741 200.545 160.008 200.512C160.275 200.478 160.544 200.552 160.757 200.717C160.969 200.882 161.107 201.124 161.141 201.391C161.174 201.658 161.101 201.927 160.936 202.14L144.67 223.104C144.574 223.227 144.451 223.326 144.311 223.394C144.171 223.462 144.017 223.497 143.861 223.496Z" fill="#FF9999"/>
  <path d="M161.858 200.302C161.635 200.301 161.42 200.225 161.245 200.088C161.14 200.006 161.051 199.905 160.985 199.79C160.919 199.674 160.876 199.547 160.86 199.415C160.843 199.283 160.852 199.149 160.887 199.02C160.923 198.892 160.983 198.772 161.065 198.667L174.954 180.753C175.119 180.54 175.362 180.401 175.629 180.367C175.896 180.334 176.165 180.407 176.378 180.572C176.591 180.737 176.73 180.98 176.763 181.247C176.797 181.514 176.724 181.783 176.559 181.996L162.657 199.91C162.563 200.032 162.442 200.131 162.303 200.199C162.164 200.267 162.012 200.302 161.858 200.302Z" fill="#FF9999"/>
  <path d="M43.0202 203.206C66.2241 203.206 85.0346 184.358 85.0346 161.109C85.0346 137.859 66.2241 119.012 43.0202 119.012C19.8163 119.012 1.00586 137.859 1.00586 161.109C1.00586 184.358 19.8163 203.206 43.0202 203.206Z" fill="#0B0E0F"/>
  <path d="M43.0637 204.242C35.0883 204.231 27.272 202.009 20.4834 197.823C13.6947 193.637 8.19947 187.651 4.60817 180.53C-6.08072 159.308 2.46426 133.33 23.6338 122.62C28.6799 120.07 34.1795 118.541 39.8176 118.12C45.4556 117.698 51.1214 118.393 56.4906 120.164C61.8597 121.935 66.8268 124.748 71.1074 128.442C75.3879 132.135 78.898 136.637 81.4365 141.689C92.1254 162.91 83.5804 188.888 62.4109 199.599C56.4159 202.644 49.7879 204.235 43.0637 204.242ZM42.981 120.017C36.5747 120.023 30.2601 121.539 24.5496 124.442C4.36624 134.651 -3.76836 159.406 6.41824 179.63C8.83712 184.443 12.1817 188.732 16.2604 192.251C20.3392 195.771 25.0721 198.451 30.188 200.138C35.304 201.826 40.7026 202.488 46.0747 202.086C51.4468 201.685 56.687 200.227 61.4951 197.798C81.6784 187.577 89.8069 162.821 79.6233 142.607C76.2025 135.821 70.9666 130.117 64.4978 126.128C58.0289 122.139 50.5806 120.023 42.981 120.014V120.017Z" fill="black"/>
  <path d="M43.0201 199.15C63.9879 199.15 80.9856 182.118 80.9856 161.108C80.9856 140.098 63.9879 123.066 43.0201 123.066C22.0524 123.066 5.05469 140.098 5.05469 161.108C5.05469 182.118 22.0524 199.15 43.0201 199.15Z" fill="#FF9999"/>
  <path d="M43.0205 195.822C62.1546 195.822 77.6659 180.281 77.6659 161.109C77.6659 141.938 62.1546 126.396 43.0205 126.396C23.8863 126.396 8.375 141.938 8.375 161.109C8.375 180.281 23.8863 195.822 43.0205 195.822Z" fill="#0B0E0F"/>
  <path d="M43.0574 196.855C36.4489 196.848 29.9718 195.009 24.3457 191.542C18.7195 188.075 14.1646 183.116 11.1868 177.217C2.32631 159.631 9.40119 138.103 26.9536 129.224C31.1355 127.111 35.6931 125.843 40.3655 125.494C45.038 125.144 49.7335 125.72 54.1832 127.188C58.6329 128.655 62.7493 130.986 66.297 134.047C69.8446 137.108 72.7536 140.838 74.8576 145.025C83.715 162.611 76.6431 184.142 59.0876 193.018C54.1201 195.539 48.6282 196.854 43.0574 196.855ZM42.9869 127.393C37.7322 127.398 32.5528 128.642 27.8694 131.025C11.3123 139.395 4.6417 159.704 12.9968 176.292C14.9809 180.24 17.7243 183.759 21.07 186.646C24.4157 189.532 28.2979 191.731 32.4944 193.115C36.6909 194.5 41.1193 195.043 45.5259 194.713C49.9326 194.384 54.231 193.188 58.175 191.195C74.7136 182.822 81.4026 162.516 73.0445 145.925C70.2396 140.358 65.9449 135.677 60.6383 132.405C55.3316 129.133 49.2212 127.398 42.9869 127.393Z" fill="black"/>
  <path d="M56.3471 155.903C54.5963 155.073 52.6099 154.882 50.7331 155.364C51.8839 154.028 52.6148 152.382 52.8341 150.632C53.0128 148.99 52.6836 147.332 51.8908 145.882C50.3125 142.905 48.1461 141.185 45.3917 140.721C43.1192 140.34 40.5088 140.791 37.5604 142.075L35.0459 137.334L32.3905 138.743L34.8682 143.413L31.3278 145.291L28.8592 140.62L26.2038 142.029L28.6816 146.7L20.5898 151.037L22.9451 155.478L26.6571 153.508L39.5664 177.851L35.7809 179.857L38.127 184.282L46.3167 179.939L48.9751 184.956L51.6305 183.547L48.9108 178.442L52.4513 176.564L55.1557 181.664L57.8111 180.255L55.0914 175.125C58.1541 173.287 60.1867 171.153 61.1893 168.721C62.302 165.991 62.0325 163.07 60.3807 159.958C59.5102 158.206 58.0949 156.783 56.3471 155.903ZM46.6229 148.194C47.4825 149.828 47.5969 151.377 46.966 152.841C46.335 154.304 45.0405 155.56 43.0824 156.608L36.9111 159.882L31.5146 149.704L37.64 146.458C39.7962 145.312 41.596 144.868 43.0396 145.126C44.4831 145.383 45.6776 146.406 46.6229 148.194ZM56.2093 168.2C55.6192 169.768 54.3369 171.076 52.3625 172.123L45.3703 175.829L39.3643 164.497L46.8802 160.516C50.7739 158.558 53.7183 159.462 55.7131 163.229C56.636 164.977 56.8004 166.634 56.2062 168.2H56.2093Z" fill="#FF6666"/>
  <path d="M373.114 351.016C351.775 358.319 328.544 346.906 321.226 325.524C313.909 304.143 325.277 280.889 346.616 273.586C367.956 266.283 391.187 277.696 398.504 299.078C405.821 320.46 394.454 343.713 373.114 351.016Z" fill="#0B0E0F"/>
  <path d="M373.4 351.981C380.731 349.461 387.22 344.958 392.146 338.972C397.072 332.985 400.242 325.751 401.303 318.072C404.454 295.191 388.42 273.99 365.58 270.802C360.137 270.046 354.598 270.37 349.281 271.757C343.963 273.144 338.971 275.566 334.591 278.885C330.21 282.203 326.528 286.354 323.753 291.097C320.979 295.841 319.168 301.086 318.423 306.531C315.272 329.411 331.307 350.613 354.146 353.8C360.618 354.714 367.214 354.091 373.4 351.981ZM346.968 274.497C352.862 272.486 359.146 271.894 365.312 272.766C387.086 275.802 402.359 296.009 399.355 317.813C398.646 323.001 396.92 327.998 394.276 332.519C391.633 337.039 388.124 340.993 383.95 344.155C379.776 347.317 375.02 349.625 369.953 350.946C364.886 352.268 359.608 352.577 354.421 351.856C332.643 348.809 317.376 328.6 320.38 306.805C321.39 299.488 324.41 292.593 329.104 286.889C333.797 281.185 339.981 276.895 346.967 274.494L346.968 274.497Z" fill="black"/>
  <path d="M371.838 347.287C352.555 353.886 331.563 343.572 324.95 324.25C318.338 304.928 328.609 283.915 347.892 277.316C367.176 270.717 388.168 281.031 394.78 300.353C401.393 319.675 391.121 340.688 371.838 347.287Z" fill="#38D9C0"/>
  <path d="M370.472 344.162C352.875 350.184 333.718 340.773 327.685 323.142C321.651 305.511 331.025 286.336 348.622 280.314C366.218 274.292 385.375 283.703 391.408 301.334C397.442 318.965 388.068 338.14 370.472 344.162Z" fill="#0B0E0F"/>
  <path d="M367.74 314.066C366.755 310.39 364.212 309.721 359.661 310.378C356.397 310.802 355.542 310.131 355.148 308.66C354.754 307.19 355.551 305.963 357.652 305.4C359.542 304.894 360.761 305.243 361.708 306.677C361.898 306.964 362.269 307.09 362.584 307.005L364.264 306.555C364.685 306.442 364.915 306.043 364.803 305.623L364.775 305.518C363.735 303.32 361.366 302.041 358.895 302.478L358.219 299.958C358.107 299.538 357.707 299.307 357.154 299.343L355.579 299.765C355.159 299.877 354.928 300.277 354.964 300.83L355.611 303.246C352.573 304.51 351.14 307.145 351.844 309.771C352.772 313.237 355.239 314.039 359.79 313.382C362.872 313.119 363.986 313.496 364.436 315.177C364.886 316.857 363.725 318.406 361.73 318.941C358.999 319.673 357.745 318.77 357.007 317.28C356.79 316.888 356.419 316.762 356.103 316.846L354.318 317.325C353.898 317.437 353.667 317.837 353.78 318.257L353.808 318.362C354.931 320.875 357.118 322.315 360.725 321.912L361.4 324.432C361.513 324.852 361.912 325.083 362.466 325.047L364.041 324.625C364.461 324.513 364.692 324.113 364.656 323.56L363.981 321.039C366.991 319.67 368.5 316.902 367.74 314.066Z" fill="#38D9C0"/>
  <path fill-rule="evenodd" clip-rule="evenodd" d="M343.657 310.726C342.778 319.63 349.428 327.641 358.407 328.386C358.779 328.512 359.206 328.848 359.291 329.163L359.685 330.633C359.741 330.843 359.769 330.948 359.692 331.081C359.7 331.53 359.336 331.852 358.86 331.755C352.472 331.44 346.746 328.134 343.279 322.76C337.455 313.627 340.074 301.556 349.207 295.732C349.284 295.599 349.494 295.542 349.599 295.514C350.048 295.507 350.342 295.765 350.455 296.186L350.849 297.656C350.989 298.181 350.864 298.552 350.5 298.875C346.616 301.604 344.051 305.893 343.657 310.726ZM359.927 293.31C359.919 292.861 360.283 292.539 360.76 292.636C367.042 292.979 372.874 296.257 376.368 301.737C382.192 310.869 379.573 322.94 370.44 328.764C370.363 328.897 370.153 328.954 370.048 328.982C369.6 328.99 369.305 328.731 369.193 328.311L368.799 326.84C368.658 326.315 368.784 325.944 369.148 325.621C373.031 322.892 375.597 318.603 375.99 313.77C376.869 304.867 370.22 296.855 361.24 296.11C360.869 295.984 360.441 295.648 360.328 295.228L359.935 293.758C359.878 293.548 359.85 293.443 359.927 293.31Z" fill="#38D9C0"/>
  <path d="M371.081 345.185C377.156 343.098 382.534 339.368 386.617 334.409C390.7 329.45 393.329 323.457 394.21 317.094C396.824 298.132 383.542 280.561 364.606 277.919C360.095 277.292 355.504 277.561 351.097 278.71C346.69 279.859 342.553 281.866 338.923 284.616C335.293 287.366 332.241 290.806 329.941 294.737C327.642 298.668 326.141 303.015 325.523 307.527C322.913 326.488 336.193 344.063 355.131 346.701C360.493 347.456 365.957 346.937 371.081 345.185ZM349.284 281.281C354.118 279.632 359.273 279.146 364.33 279.864C382.192 282.351 394.718 298.928 392.255 316.813C391.673 321.069 390.257 325.168 388.089 328.876C385.92 332.583 383.042 335.827 379.618 338.421C376.195 341.015 372.293 342.908 368.137 343.992C363.98 345.076 359.651 345.329 355.397 344.738C337.552 342.242 325.009 325.673 327.474 307.785C328.302 301.781 330.778 296.126 334.629 291.446C338.479 286.767 343.553 283.248 349.284 281.281Z" fill="black"/>
  <path d="M128.934 151.912C117.855 143.069 116.028 126.938 124.853 115.881C133.679 104.825 149.814 103.03 160.892 111.873C171.971 120.716 173.798 136.848 164.973 147.904C156.148 158.961 140.013 160.755 128.934 151.912Z" fill="#0B0E0F"/>
  <path d="M136.056 156.814C140.952 158.571 146.259 158.843 151.309 157.595C156.359 156.347 160.928 153.635 164.442 149.799C167.956 145.963 170.259 141.175 171.061 136.035C171.863 130.895 171.128 125.633 168.95 120.909C162.859 107.646 147.119 101.79 133.86 107.854C129.079 110.05 125.062 113.622 122.323 118.114C119.583 122.606 118.246 127.813 118.482 133.069C118.718 138.325 120.517 143.392 123.648 147.62C126.779 151.848 131.101 155.046 136.059 156.805L136.056 156.814ZM153.205 108.553C157.862 110.2 161.921 113.199 164.863 117.167C167.805 121.134 169.495 125.89 169.717 130.824C169.94 135.759 168.684 140.647 166.11 144.863C163.537 149.08 159.764 152.431 155.274 154.49C142.83 160.181 128.056 154.683 122.34 142.235C120.298 137.803 119.612 132.866 120.366 128.045C121.12 123.224 123.281 118.733 126.578 115.135C129.874 111.538 134.16 108.994 138.897 107.823C143.634 106.652 148.612 106.906 153.205 108.553Z" fill="black"/>
  <path d="M130.469 149.993C120.458 142.002 118.808 127.425 126.782 117.434C134.757 107.444 149.337 105.822 159.348 113.813C169.359 121.803 171.01 136.38 163.035 146.371C155.061 156.362 140.48 157.984 130.469 149.993Z" fill="#FF6666"/>
  <path d="M131.545 148.894C122.41 141.601 120.907 128.298 128.186 119.182C135.465 110.066 148.77 108.589 157.904 115.882C167.039 123.175 168.543 136.478 161.264 145.594C153.984 154.71 140.679 156.188 131.545 148.894Z" fill="#0B0E0F"/>
  <path d="M142.329 135.826L152.799 135.805L146.25 125.643L142.329 135.826Z" fill="#FFCACA"/>
  <path d="M137.123 126.788L142.339 135.865L147.182 127.477L137.123 126.788Z" fill="#FFCACA"/>
  <path d="M152.316 118.53L137.099 126.773L149.999 128.124L152.316 118.53Z" fill="#FF9999"/>
  <path d="M152.315 118.529L146.967 127.794L152.785 135.829L152.315 118.529Z" fill="#FF6666"/>
  <path d="M137.842 143.599L142.171 138.453L136.288 128.232L137.842 143.599Z" fill="#FF9999"/>
  <path d="M141.481 137.295L137.842 143.598L151.95 137.274L141.481 137.295Z" fill="#FF6666"/>
  <path d="M137.562 152.581C142.338 154.281 147.556 154.277 152.329 152.569C157.103 150.86 161.139 147.554 163.753 143.21C166.367 138.866 167.398 133.751 166.671 128.733C165.945 123.716 163.505 119.104 159.766 115.679C156.027 112.255 151.219 110.229 146.157 109.946C141.095 109.662 136.091 111.137 131.992 114.122C127.894 117.107 124.954 121.418 123.672 126.323C122.389 131.228 122.842 136.425 124.954 141.034C126.173 143.707 127.917 146.106 130.083 148.09C132.249 150.074 134.793 151.602 137.562 152.581ZM151.701 112.786C156.126 114.374 159.862 117.451 162.27 121.49C164.677 125.529 165.606 130.279 164.898 134.927C164.19 139.575 161.888 143.833 158.387 146.972C154.887 150.111 150.404 151.935 145.706 152.134C141.008 152.332 136.388 150.892 132.634 148.06C128.881 145.228 126.229 141.179 125.131 136.607C124.033 132.035 124.558 127.224 126.616 122.996C128.674 118.769 132.137 115.388 136.413 113.432C141.23 111.234 146.715 111.002 151.701 112.786Z" fill="black"/>
  <path d="M86.1442 119.444C72.0029 118.465 61.3311 106.231 62.3081 92.1179C63.2851 78.005 75.5408 67.3579 89.6821 68.3369C103.823 69.3158 114.495 81.5501 113.518 95.6629C112.541 109.776 100.285 120.423 86.1442 119.444Z" fill="#0B0E0F"/>
  <path d="M94.7915 119.429C99.8188 118.092 104.339 115.3 107.785 111.402C111.231 107.505 113.448 102.677 114.16 97.5237C114.871 92.3704 114.044 87.1219 111.782 82.4371C109.521 77.7523 105.926 73.84 101.448 71.1914C88.8986 63.7411 72.6194 67.8689 65.1573 80.3937C62.4719 84.9181 61.1973 90.1408 61.4964 95.3937C61.7955 100.647 63.6548 105.691 66.8365 109.881C70.0181 114.071 74.3774 117.217 79.3569 118.917C84.3363 120.616 89.7094 120.791 94.7889 119.42L94.7915 119.429ZM81.4714 69.9744C86.2388 68.6822 91.2834 68.8426 95.959 70.4352C100.635 72.0278 104.728 74.9799 107.716 78.9135C110.703 82.8471 112.448 87.583 112.727 92.5144C113.006 97.4459 111.807 102.348 109.282 106.594C102.279 118.349 86.9975 122.223 75.2196 115.23C71.0211 112.743 67.6505 109.072 65.5306 104.677C63.4108 100.281 62.6362 95.358 63.3039 90.5242C63.9717 85.6904 66.0521 81.1614 69.2842 77.5056C72.5162 73.8497 76.7559 71.2297 81.4714 69.9744Z" fill="black"/>
  <path d="M86.3179 116.994C73.5394 116.11 63.8961 105.054 64.7789 92.3015C65.6617 79.5488 76.7364 69.9278 89.5148 70.8124C102.293 71.697 111.937 82.7522 111.054 95.5049C110.171 108.258 99.0964 117.879 86.3179 116.994Z" fill="#FF6666"/>
  <path d="M86.5787 115.479C74.918 114.67 66.1198 104.58 66.9275 92.9421C67.7351 81.3044 77.8428 72.5262 89.5035 73.3355C101.164 74.1447 109.962 84.235 109.155 95.8727C108.347 107.51 98.2395 116.289 86.5787 115.479Z" fill="#0B0E0F"/>
  <path fill-rule="evenodd" clip-rule="evenodd" d="M90.9169 93.913C90.7826 93.96 90.0858 94.192 88.5064 94.6152C87.2501 94.9518 86.3481 95.1531 86.0312 95.2221C81.1191 96.3094 77.2689 96.4353 76.9978 95.4234C76.7267 94.4116 80.1242 92.5966 84.921 91.0788L85.8056 94.3804C86.1292 94.3182 87.0527 94.1283 88.309 93.7917C89.8165 93.3877 90.5545 93.1227 90.6871 93.0737L89.8027 89.7732C94.7051 88.6909 98.5473 88.5672 98.8178 89.5768C99.0883 90.5863 95.7002 92.4 90.912 93.9131L90.9169 93.913ZM89.7161 89.4305L88.9245 86.476L95.6854 84.6644L94.4782 80.159L76.0706 85.0913L77.2779 89.5967L84.0377 87.7854L84.829 90.7387C79.4022 92.4633 75.5619 94.6589 75.9114 95.9631C76.2608 97.2673 80.6841 97.2474 86.2464 96.0287L88.7833 105.496L93.669 104.187L91.1312 94.7162C96.5454 92.9949 100.379 90.8024 100.03 89.4993C99.6809 88.1962 95.2679 88.2134 89.7147 89.4296L89.7161 89.4305Z" fill="#FF6666"/>
  <path d="M93.6239 115.091C98.52 113.775 102.81 110.805 105.767 106.687C108.724 102.568 110.165 97.5538 109.847 92.4938C109.528 87.4338 107.47 82.6397 104.02 78.9242C100.57 75.2088 95.9418 72.8008 90.9193 72.1085C85.8968 71.4162 80.7894 72.4822 76.4632 75.1259C72.1369 77.7695 68.8581 81.828 67.1827 86.6131C65.5073 91.3983 65.5384 96.6157 67.2707 101.381C69.003 106.145 72.3299 110.165 76.6873 112.756C79.2092 114.262 82.0084 115.245 84.9182 115.646C87.828 116.047 90.7887 115.858 93.6239 115.091ZM82.6386 74.3117C87.1826 73.1033 92.0053 73.5115 96.2816 75.4664C100.558 77.4213 104.022 80.8014 106.081 85.0284C108.14 89.2554 108.667 94.0666 107.57 98.6388C106.474 103.211 103.823 107.26 100.07 110.094C96.3181 112.927 91.6978 114.368 87 114.171C82.3022 113.974 77.8189 112.151 74.3171 109.013C70.8153 105.875 68.5127 101.618 67.8031 96.9702C67.0935 92.3222 68.0212 87.572 70.4273 83.5323C73.1417 78.9859 77.5227 75.6778 82.6386 74.3117Z" fill="black"/>
  </svg>
  