<svg width="96" height="96" viewBox="0 0 96 96" fill="none" xmlns="http://www.w3.org/2000/svg">
    <ellipse cx="47.9698" cy="48" rx="47.9698" ry="48" fill="#181D27"/>
    <path d="M33.4687 42.0748C35.9431 42.0748 37.9491 40.0433 37.9491 37.5374C37.9491 35.0315 35.9431 33 33.4687 33C30.9942 33 28.9883 35.0315 28.9883 37.5374C28.9883 40.0433 30.9942 42.0748 33.4687 42.0748Z" fill="#FF6666"/>
    <path d="M33.4687 52.5377C35.9431 52.5377 37.9491 50.5062 37.9491 48.0003C37.9491 45.4944 35.9431 43.4629 33.4687 43.4629C30.9942 43.4629 28.9883 45.4944 28.9883 48.0003C28.9883 50.5062 30.9942 52.5377 33.4687 52.5377Z" fill="#FF6666"/>
    <path d="M43.8085 62.9957C46.283 62.9957 48.2889 60.9642 48.2889 58.4583C48.2889 55.9524 46.283 53.9209 43.8085 53.9209C41.3341 53.9209 39.3281 55.9524 39.3281 58.4583C39.3281 60.9642 41.3341 62.9957 43.8085 62.9957Z" fill="#FF6666"/>
    <path d="M37.9497 58.5776C37.9497 56.9772 38.5769 55.4422 39.6936 54.3097C40.8102 53.1773 42.325 52.5399 43.9054 52.5377H43.8003C44.6864 52.5377 45.5527 52.2716 46.2895 51.773C47.0263 51.2744 47.6005 50.5658 47.9396 49.7367C48.2788 48.9076 48.3675 47.9953 48.1946 47.1151C48.0217 46.2349 47.595 45.4264 46.9684 44.7919C46.3418 44.1573 45.5435 43.7252 44.6744 43.5501C43.8053 43.375 42.9044 43.4649 42.0857 43.8083C41.267 44.1517 40.5673 44.7333 40.075 45.4794C39.5826 46.2256 39.3199 47.1029 39.3199 48.0003V47.8854C39.3199 49.4873 38.6915 51.0235 37.573 52.1562C36.4546 53.2889 34.9376 53.9253 33.3558 53.9253H33.4609C32.5746 53.9253 31.7082 54.1915 30.9713 54.6903C30.2344 55.189 29.6601 55.8979 29.3211 56.7273C28.9821 57.5566 28.8936 58.4692 29.0669 59.3495C29.2401 60.2297 29.6672 61.0382 30.2942 61.6726C30.9213 62.307 31.72 62.7388 32.5894 62.9134C33.4588 63.088 34.3598 62.9975 35.1784 62.6535C35.997 62.3094 36.6964 61.7272 37.1882 60.9804C37.6801 60.2337 37.9421 59.356 37.9413 58.4584L37.9497 58.5776Z" fill="#FF6666"/>
    <path d="M54.1464 62.9957C56.6209 62.9957 58.6268 60.9642 58.6268 58.4583C58.6268 55.9524 56.6209 53.9209 54.1464 53.9209C51.672 53.9209 49.666 55.9524 49.666 58.4583C49.666 60.9642 51.672 62.9957 54.1464 62.9957Z" fill="#2FCFB0"/>
    <path d="M54.253 43.4709C52.6712 43.4709 51.1543 42.8346 50.0358 41.7019C48.9173 40.5692 48.2889 39.0329 48.2889 37.431V37.5374C48.2889 36.64 48.0262 35.7627 47.5339 35.0166C47.0415 34.2704 46.3418 33.6888 45.5231 33.3454C44.7044 33.002 43.8036 32.9121 42.9344 33.0872C42.0653 33.2623 41.267 33.6944 40.6404 34.329C40.0138 34.9635 39.5871 35.772 39.4142 36.6522C39.2413 37.5324 39.3301 38.4447 39.6692 39.2738C40.0083 40.1029 40.5826 40.8115 41.3194 41.3101C42.0562 41.8087 42.9224 42.0748 43.8085 42.0748H43.6951C45.2754 42.0748 46.7911 42.71 47.9093 43.8408C49.0276 44.9717 49.6569 46.5058 49.6591 48.1062V47.9998C49.6591 48.8972 49.9219 49.7745 50.4142 50.5206C50.9065 51.2668 51.6063 51.8484 52.4249 52.1918C53.2436 52.5352 54.1445 52.6251 55.0136 52.45C55.8827 52.2749 56.6811 51.8428 57.3077 51.2082C57.9342 50.5737 58.361 49.7652 58.5338 48.885C58.7067 48.0048 58.618 47.0925 58.2789 46.2634C57.9398 45.4343 57.3655 44.7257 56.6287 44.2271C55.8919 43.7285 55.0257 43.4624 54.1395 43.4624L54.253 43.4709Z" fill="#2FCFB0"/>
    <path d="M64.4732 33H54.1464C52.9581 33 51.8185 33.478 50.9783 34.329C50.1381 35.1799 49.666 36.334 49.666 37.5374C49.666 38.7408 50.1381 39.8949 50.9783 40.7458C51.8185 41.5967 52.9581 42.0748 54.1464 42.0748H64.4732C65.6615 42.0748 66.8011 41.5967 67.6413 40.7458C68.4816 39.8949 68.9536 38.7408 68.9536 37.5374C68.9536 36.334 68.4816 35.1799 67.6413 34.329C66.8011 33.478 65.6615 33 64.4732 33V33Z" fill="#2FCFB0"/>
</svg>
