<svg width="72" height="73" viewBox="0 0 72 73" fill="none" xmlns="http://www.w3.org/2000/svg">
<path d="M56.8699 16.554C63.6462 27.0144 66.9927 38.8136 65.7417 52.397C65.7364 52.4545 65.7079 52.5073 65.6629 52.5419C60.5314 56.4981 55.5597 58.899 50.6577 60.4912C50.6195 60.5034 50.5787 60.5027 50.5409 60.4893C50.5031 60.4759 50.4703 60.4504 50.447 60.4164C49.3145 58.762 48.2855 57.0178 47.384 55.1862C47.3322 55.0783 47.3795 54.9484 47.486 54.9059C49.1202 54.2594 50.6742 53.4845 52.169 52.5671C52.2867 52.4947 52.2942 52.3175 52.1854 52.2325C51.8682 51.9852 51.554 51.7254 51.2532 51.4655C51.197 51.4175 51.1212 51.408 51.0575 51.4403C41.3532 56.1453 30.7227 56.1453 20.9038 51.4403C20.84 51.4104 20.7643 51.4206 20.7095 51.4679C20.4095 51.7277 20.0945 51.9852 19.7803 52.2325C19.6715 52.3175 19.6805 52.4947 19.799 52.5671C21.2938 53.4672 22.8477 54.2594 24.4797 54.909C24.5855 54.9515 24.6357 55.0783 24.5832 55.1862C23.7012 57.0202 22.6722 58.7644 21.5188 60.4188C21.4685 60.4857 21.386 60.5164 21.308 60.4912C16.4293 58.899 11.4575 56.4981 6.32603 52.5419C6.28328 52.5073 6.25253 52.4522 6.24803 52.3947C5.20253 40.6452 7.33327 28.7484 15.1115 16.5516C15.1303 16.5193 15.1588 16.4941 15.1918 16.4791C19.019 14.6349 23.1192 13.2782 27.4047 12.5033C27.4827 12.4907 27.5607 12.5285 27.6012 12.601C28.1307 13.5853 28.736 14.8476 29.1455 15.8791C33.6627 15.1547 38.2505 15.1547 42.8622 15.8791C43.2717 14.8696 43.856 13.5853 44.3832 12.601C44.402 12.565 44.4311 12.5362 44.4664 12.5187C44.5017 12.5012 44.5413 12.4958 44.5797 12.5033C48.8675 13.2805 52.9677 14.6373 56.7919 16.4791C56.8257 16.4941 56.8534 16.5193 56.8699 16.554ZM31.442 38.8939C31.4892 35.4204 29.0772 32.5463 26.0495 32.5463C23.0465 32.5463 20.6578 35.3952 20.6578 38.8939C20.6578 42.3917 23.0937 45.2407 26.0495 45.2407C29.0532 45.2407 31.442 42.3917 31.442 38.8939ZM51.3784 38.8939C51.4257 35.4204 49.0137 32.5463 45.9867 32.5463C42.983 32.5463 40.5942 35.3952 40.5942 38.8939C40.5942 42.3917 43.0302 45.2407 45.9867 45.2407C49.0137 45.2407 51.3784 42.3917 51.3784 38.8939Z" fill="#38D9C0"/>
</svg>
