<svg width="177" height="136" viewBox="0 0 177 136" fill="none" xmlns="http://www.w3.org/2000/svg">
<circle cx="27.5" cy="106.5" r="23.5" stroke="#38D9C0" stroke-width="4"/>
<circle cx="27.5" cy="101.5" r="5.5" stroke="#FF6666" stroke-width="4"/>
<path d="M27.5 130C22.2007 130 17.3163 128.179 13.409 125.106C15.93 119.701 21.309 116 27.5 116C33.691 116 39.07 119.701 41.591 125.106C37.6837 128.179 32.7993 130 27.5 130Z" stroke="#FF6666" stroke-width="4"/>
<path d="M107.568 40.392V38.3636H117.125V40.392H113.562V50H111.131V40.392H107.568ZM125.011 41.7102C124.966 41.2519 124.771 40.8958 124.426 40.642C124.081 40.3883 123.614 40.2614 123.023 40.2614C122.621 40.2614 122.282 40.3182 122.006 40.4318C121.729 40.5417 121.517 40.6951 121.369 40.892C121.225 41.089 121.153 41.3125 121.153 41.5625C121.146 41.7708 121.189 41.9527 121.284 42.108C121.383 42.2633 121.517 42.3977 121.688 42.5114C121.858 42.6212 122.055 42.7178 122.278 42.8011C122.502 42.8807 122.741 42.9489 122.994 43.0057L124.04 43.2557C124.547 43.3693 125.013 43.5208 125.438 43.7102C125.862 43.8996 126.229 44.1326 126.54 44.4091C126.85 44.6856 127.091 45.0114 127.261 45.3864C127.436 45.7614 127.525 46.1913 127.528 46.6761C127.525 47.3883 127.343 48.0057 126.983 48.5284C126.627 49.0473 126.112 49.4508 125.438 49.7386C124.767 50.0227 123.958 50.1648 123.011 50.1648C122.072 50.1648 121.254 50.0208 120.557 49.733C119.864 49.4451 119.322 49.0189 118.932 48.4545C118.545 47.8864 118.343 47.1837 118.324 46.3466H120.705C120.731 46.7367 120.843 47.0625 121.04 47.3239C121.241 47.5814 121.508 47.7765 121.841 47.9091C122.178 48.0379 122.559 48.1023 122.983 48.1023C123.4 48.1023 123.761 48.0417 124.068 47.9205C124.379 47.7992 124.619 47.6307 124.79 47.4148C124.96 47.1989 125.045 46.9508 125.045 46.6705C125.045 46.4091 124.968 46.1894 124.812 46.0114C124.661 45.8333 124.438 45.6818 124.142 45.5568C123.85 45.4318 123.492 45.3182 123.068 45.2159L121.801 44.8977C120.82 44.6591 120.045 44.286 119.477 43.7784C118.909 43.2708 118.627 42.5871 118.631 41.7273C118.627 41.0227 118.814 40.4072 119.193 39.8807C119.576 39.3542 120.1 38.9432 120.767 38.6477C121.434 38.3523 122.191 38.2045 123.04 38.2045C123.903 38.2045 124.657 38.3523 125.301 38.6477C125.949 38.9432 126.453 39.3542 126.812 39.8807C127.172 40.4072 127.358 41.017 127.369 41.7102H125.011ZM135.496 41.7102C135.45 41.2519 135.255 40.8958 134.911 40.642C134.566 40.3883 134.098 40.2614 133.507 40.2614C133.106 40.2614 132.767 40.3182 132.49 40.4318C132.214 40.5417 132.001 40.6951 131.854 40.892C131.71 41.089 131.638 41.3125 131.638 41.5625C131.63 41.7708 131.674 41.9527 131.768 42.108C131.867 42.2633 132.001 42.3977 132.172 42.5114C132.342 42.6212 132.539 42.7178 132.763 42.8011C132.986 42.8807 133.225 42.9489 133.479 43.0057L134.524 43.2557C135.032 43.3693 135.498 43.5208 135.922 43.7102C136.346 43.8996 136.714 44.1326 137.024 44.4091C137.335 44.6856 137.575 45.0114 137.746 45.3864C137.92 45.7614 138.009 46.1913 138.013 46.6761C138.009 47.3883 137.827 48.0057 137.467 48.5284C137.111 49.0473 136.596 49.4508 135.922 49.7386C135.251 50.0227 134.443 50.1648 133.496 50.1648C132.556 50.1648 131.738 50.0208 131.041 49.733C130.348 49.4451 129.806 49.0189 129.416 48.4545C129.03 47.8864 128.827 47.1837 128.808 46.3466H131.189C131.215 46.7367 131.327 47.0625 131.524 47.3239C131.725 47.5814 131.992 47.7765 132.325 47.9091C132.662 48.0379 133.043 48.1023 133.467 48.1023C133.884 48.1023 134.246 48.0417 134.553 47.9205C134.863 47.7992 135.104 47.6307 135.274 47.4148C135.445 47.1989 135.53 46.9508 135.53 46.6705C135.53 46.4091 135.452 46.1894 135.297 46.0114C135.145 45.8333 134.922 45.6818 134.626 45.5568C134.335 45.4318 133.977 45.3182 133.553 45.2159L132.286 44.8977C131.304 44.6591 130.53 44.286 129.962 43.7784C129.393 43.2708 129.111 42.5871 129.115 41.7273C129.111 41.0227 129.299 40.4072 129.678 39.8807C130.06 39.3542 130.585 38.9432 131.251 38.6477C131.918 38.3523 132.676 38.2045 133.524 38.2045C134.388 38.2045 135.142 38.3523 135.786 38.6477C136.433 38.9432 136.937 39.3542 137.297 39.8807C137.657 40.4072 137.842 41.017 137.854 41.7102H135.496Z" fill="#38D9C0"/>
<rect x="85" y="18" width="76" height="52" rx="14" stroke="#38D9C0" stroke-width="4"/>
<path d="M48.9999 111.64C48.9999 111.64 58.3205 113.781 82.6602 101.64C107 89.4995 124.5 69.4995 124.5 69.4995" stroke="#38D9C0" stroke-width="4"/>
<path d="M169.917 15.584H150.083C148.519 15.584 147.25 16.8525 147.25 18.4173V28.334C147.25 29.8988 148.519 31.1673 150.083 31.1673H169.917C171.481 31.1673 172.75 29.8988 172.75 28.334V18.4173C172.75 16.8525 171.481 15.584 169.917 15.584Z" fill="#FF6666"/>
<path d="M152.917 15.5833V9.91664C152.915 8.16004 153.566 6.46545 154.743 5.16183C155.921 3.85822 157.54 3.03859 159.288 2.86205C161.036 2.68551 162.787 3.16467 164.201 4.2065C165.615 5.24833 166.592 6.77851 166.942 8.49997" stroke="#FF6666" stroke-width="4" stroke-linecap="round" stroke-linejoin="round"/>
</svg>
